<svg xmlns:xlink="http://www.w3.org/1999/xlink" xmlns="http://www.w3.org/2000/svg" viewBox="0 0 611.8 800" class="uniflash-border" preserveAspectRatio="none" width="300" height="500" >
<symbol id="uniflash-symbol" viewBox="0 0 611.8 800">

<g>
	<path d="M534.6,400.1c0.4,0,0.9,0,1.3,0C535.5,400,534.8,400,534.6,400.1z"></path>
	<path d="M549.7,428c12.3,0.2,46.7,2.1,46.7,0.9c0.1-1.1-34.3-3.2-46.6-4.3c-3.6-0.3-6.5-0.8-9-1.3c11.9,0.2,24.3,0.5,24.3-0.4
		c0.1-1.1-16-2-29-3.1c-2-0.2-3.8-0.4-5.4-0.6c1.2,0,2.4-0.1,3.7-0.1c12.5,0,27.9,0.5,27.9-0.6c0.1-1-14-1.7-26.1-2.6
		c2.8-0.3,6-0.5,10-0.6c12.8-0.1,28.7,0.2,28.7-0.9c0-1.1-15.8-1.7-28.6-2.6c-3.4-0.2-6.2-0.6-8.6-0.9c1.7-0.1,3.5-0.2,5.5-0.2
		c12.7-0.2,28.4-0.1,28.5-1.2c0-1.1-15.7-1.6-28.4-2.3c-3.1-0.2-5.7-0.5-8-0.8c1.2-0.1,2.4-0.1,3.8-0.2c12.7-0.3,28.5-0.3,28.5-1.4
		c0-1.1-15.7-1.4-28.4-2c-2.6-0.1-4.8-0.3-6.8-0.5c2.2-0.3,4.8-0.5,7.8-0.6c12.7-0.5,28.5-0.6,28.5-1.7l-34,0c-0.2,0-0.1,0,0,0
		c-0.3,0-0.5,0-0.8,0l-42.9,0c0,0.9,17.6,1.1,30.3,1.6c2.6,0.1,4.8,0.3,6.8,0.5c-2.2,0.3-4.8,0.5-7.7,0.6
		c-12.7,0.4-30.3,0.4-30.3,1.3c0,0.9,17.6,1.3,30.3,1.9c3.1,0.2,5.7,0.4,8,0.7c-1.2,0.1-2.4,0.1-3.7,0.2
		c-12.7,0.3-30.3,0.1-30.3,1.1c0,0.9,17.6,1.4,30.3,2.2c3.3,0.2,6,0.5,8.4,0.9c-1.7,0.1-3.6,0.2-5.7,0.2
		c-12.8,0.2-30.6-0.1-30.6,0.8c0,0.9,17.1,1.6,29.9,2.5c-2.7,0.3-5.8,0.5-9.6,0.5c-12.5,0-29.7-0.4-29.7,0.5
		c0,0.9,17.2,1.7,29.6,2.7c1.6,0.1,3,0.3,4.4,0.4c-1.5,0.1-3.1,0.1-4.9,0.1c-13-0.1-31-0.7-31.1,0.2c-0.1,0.9,17.9,2,30.9,3.1
		c3.9,0.3,7,0.8,9.7,1.3c-10.8-0.2-22-0.6-22,0.1c0,0.8,13.7,1.8,25.3,2.9c-2.4,0.1-5.1,0.2-8.3,0.1c-13.3-0.3-31.5-1.3-31.6-0.3
		c0,0.9,18.2,2.3,31.4,3.7c1.9,0.2,3.6,0.4,5.2,0.7c-2.5,0.2-5.4,0.2-8.9,0.1c-6.5-0.2-19.3-1-30.5-1.6c-11.2-0.6-20.9-1.1-20.9-0.6
		c0,0.4,9.6,1.4,20.8,2.5c11.2,1.1,24,2.2,30.4,3c3.9,0.5,7,1,9.7,1.6c-1.1,0-2.2-0.1-3.4-0.1c-13.3-0.6-31.7-1.9-31.8-1
		c-0.1,1,18.2,2.7,31.4,4.4c2.9,0.4,5.4,0.8,7.6,1.3c-2,0-4.3,0-6.9-0.1c-12.8-0.7-30.4-2.2-30.5-1.2c-0.1,0.9,17.5,2.8,30.2,4.6
		c1.1,0.2,2.2,0.3,3.2,0.5c-2.2,0-4.7,0-7.6-0.2c-12.4-0.8-29.4-2.4-29.5-1.5c-0.1,0.9,16.9,2.9,29.2,4.7c4.9,0.7,8.5,1.6,11.6,2.5
		l-0.5,0c-13.4-1-31.9-2.9-32.1-1.9c-0.1,0.8,12.2,2.5,23.9,4.3c-3.3,0.1-7.2,0.1-12.3-0.3c-13-1.1-31-3.2-31.1-2.3
		c-0.1,0.9,17.8,3.4,30.7,5.5c2.1,0.3,3.9,0.7,5.6,1.1c-13.1-1.3-28-3-28.1-2.2c-0.1,0.9,15.1,3.2,28.3,5.5
		c-1.6-0.1-3.4-0.2-5.3-0.4c-13.3-1.3-31.6-3.8-31.7-2.9c-0.1,0.9,18.1,3.7,31.2,6.2c2,0.4,3.8,0.8,5.5,1.2
		c-12.3-1.4-28.9-3.7-29-2.9c-0.1,0.9,16.8,3.6,29,6c2.2,0.4,4.2,0.9,5.9,1.4c-2-0.1-4.2-0.3-6.7-0.6c-12.9-1.5-30.7-4.3-30.8-3.3
		c-0.1,0.9,17.6,4,30.3,6.6c0.4,0.1,0.8,0.2,1.1,0.2c-13.5-1.8-30.3-4.4-30.4-3.5c-0.2,1,18.8,4.4,32.4,7.4c1,0.2,2,0.5,2.9,0.7
		c-1.3-0.1-2.7-0.3-4.2-0.5c-13.4-1.8-31.8-5-31.9-4c-0.1,0.9,18.1,4.5,31.3,7.4c3.2,0.7,5.9,1.5,8.3,2.2c-13.4-2-31.5-5.2-31.7-4.3
		c-0.2,0.9,15.8,4.2,28.6,7.2c-13.9-2.2-32-5.6-32.2-4.6c-0.2,0.8,13.3,3.8,25.8,6.8c-13.2-2.2-29.2-5.3-29.4-4.4
		c-0.2,1,18.4,5.1,31.8,8.5c2.1,0.5,4,1.1,5.6,1.6c-1.7-0.2-3.6-0.5-5.7-0.8c-13.6-2.4-32.2-6.3-32.4-5.3c-0.1,0.7,10,3.3,20.8,6
		c-0.9-0.2-1.9-0.3-3-0.5c-14.1-2.6-33.5-6.8-33.7-5.9c-0.2,0.9,19,5.6,32.8,9.3c2.5,0.7,4.7,1.4,6.7,2c-13-2.6-27.9-5.9-28.1-5.1
		c-0.2,0.9,16.8,5.2,30.1,9c-2.9-0.3-6.1-0.8-10.1-1.6c-13.9-2.9-32.9-7.4-33.2-6.5c-0.2,0.9,18.7,5.9,32.3,9.9
		c1.9,0.6,3.6,1.1,5.2,1.7c-11.1-2.5-22.6-5.2-22.8-4.5c-0.3,0.9,17.2,5.6,29.7,9.5c3,0.9,5.5,1.8,7.7,2.7c-1.4-0.3-3-0.6-4.6-0.9
		c-13.6-3.1-32.2-7.9-32.5-7c-0.3,1,18.2,6.2,31.5,10.5c2,0.6,3.7,1.3,5.3,1.9c-1.5-0.3-3.2-0.6-5-1.1c-12.9-3.1-30.6-7.9-30.9-7
		c-0.3,0.9,17.3,6.1,30,10.3c2.2,0.7,4,1.4,5.8,2.1c-2.3-0.4-4.9-0.9-7.9-1.7c-13.4-3.3-31.7-8.6-32-7.6c-0.3,0.9,18,6.6,31,11.1
		c2.3,0.8,4.3,1.5,6.1,2.3c-1.8-0.4-3.8-0.8-6.1-1.4c-12.6-3.3-29.9-8.4-30.2-7.5c-0.3,0.9,16.9,6.4,29.1,10.8
		c1.7,0.6,3.2,1.2,4.6,1.8c-2.5-0.5-5.2-1.1-8.4-2c-13.3-3.6-31.4-9.3-31.7-8.3c-0.3,0.9,16.1,6.4,28.8,11c-1.4-0.3-2.9-0.7-4.6-1.2
		c-6.3-1.8-18.6-5.7-29.2-8.9c-10.7-3.3-19.8-6-19.9-5.6c-0.1,0.4,8.8,3.7,19.3,7.4c10.5,3.7,22.6,8,28.8,10.3
		c3,1.1,5.4,2.2,7.6,3.2c-1-0.3-2-0.5-3-0.8c-12.8-3.8-30.3-9.6-30.6-8.7c-0.3,0.8,15.8,6.6,28.1,11.4c-0.5-0.2-1.1-0.3-1.6-0.5
		c-13.1-4-31.1-10.2-31.4-9.3c-0.3,0.9,17.5,7.4,30.2,12.6c1.1,0.5,2.2,0.9,3.2,1.4c-2.1-0.5-4.4-1.2-7.1-2
		c-13.2-4.2-31.3-10.7-31.6-9.8c-0.3,0.9,17.6,7.7,30.4,13.1c3.3,1.4,6.1,2.7,8.4,4c-0.5-0.1-0.9-0.3-1.4-0.5
		c-13.6-4.5-32.1-11.4-32.4-10.4c-0.3,0.8,13.4,6.3,25.6,11.5c-0.6-0.2-1.2-0.4-1.8-0.6c-12-4.1-28.4-10.4-28.7-9.6
		c-0.3,0.8,15.9,7.4,27.5,12.5c2.7,1.2,5,2.3,6.9,3.4c-12.8-4.6-27.5-10.3-27.9-9.5c-0.4,0.9,17.9,8.6,30.9,14.6
		c1,0.5,2,0.9,2.9,1.4c-11-4.1-23.9-9.2-24.2-8.5c-0.3,0.8,14.3,7.1,25.4,12.3c-1.6-0.5-3.3-1.1-5.3-1.8
		c-11.6-4.4-27.5-11-27.8-10.2c-0.3,0.8,15.3,7.7,26.4,13.1c-0.2-0.1-0.4-0.1-0.6-0.2c-12-4.6-28.3-11.6-28.6-10.8
		c-0.4,0.8,15.8,8.1,27.3,13.8c0.6,0.3,1.1,0.6,1.7,0.9c-2-0.6-4.1-1.4-6.5-2.4c-12.8-5.2-30.3-12.9-30.7-12s16.9,8.9,29.2,15.2
		c3.3,1.7,5.9,3.2,8.2,4.6c-11.4-4.8-26.2-11.5-26.5-10.7c-0.3,0.7,11.7,6.6,22.2,12c-3.2-1-6.8-2.2-11.4-4.2
		c-12.8-5.5-30.3-13.7-30.7-12.9c-0.4,0.8,16.9,9.4,29.2,16.1c1.8,1,3.5,1.9,5,2.8c-12.8-5.7-29.6-13.9-30.1-13
		c-0.4,0.8,14.9,8.7,26.9,15.3c-0.8-0.4-1.7-0.7-2.6-1.1c-12.1-5.6-28.6-13.8-29-13c-0.4,0.8,15.9,9.4,27.5,16
		c2.6,1.5,4.8,2.8,6.7,4.1c-11.6-5.6-25.7-12.7-26.1-11.9c-0.4,0.8,13.3,8.2,24.4,14.6c-0.8-0.4-1.7-0.8-2.6-1.2
		c-11.7-5.7-27.5-14-27.9-13.2c-0.4,0.7,14.4,9,25.4,15.6c-0.8-0.4-1.7-0.8-2.7-1.3c-11.2-5.6-26.5-13.8-26.9-13.1
		c-0.4,0.7,14.6,9.3,25.3,15.8c1.3,0.8,2.5,1.5,3.6,2.3c-10.6-5.6-21.2-11.2-21.5-10.5c-0.4,0.7,11.6,7.9,22.6,14.7
		c-2.6-1-5.5-2.4-9.1-4.2c-11.2-5.9-26.4-14.6-26.8-13.9c-0.4,0.7,14.6,9.7,25.3,16.6c3.7,2.4,6.4,4.4,8.7,6.3
		c-0.6-0.3-1.3-0.7-2-1.1c-11.2-6.1-26.4-15.1-26.8-14.3l38.7,23.4c-0.4-0.2,1,0.6,1.7,1.1c-0.4-0.3-0.9-0.5-1.3-0.8l27.4,16.6
		c0.6-1-12.8-9.2-23.4-16.2c-3.7-2.4-6.4-4.5-8.8-6.4c0.6,0.3,1.2,0.6,1.9,1c11.2,6,24.8,13.8,25.3,12.9c0.4-0.7-6-4.7-13.5-9.4
		c3,1.2,6.4,2.6,10.6,4.8c12.7,6.6,28.1,15.2,28.7,14c0.6-1.2-14.6-10-26.7-17.5c-2-1.2-3.7-2.4-5.3-3.5c6.5,3.3,11.6,5.8,12,5.2
		c0.5-0.9-11.5-7.7-21.9-13.9c1,0.5,2.1,1,3.2,1.5c11.6,5.8,25.7,13.2,26.3,12.2c0.5-0.9-10.8-7.2-21.1-13.3c1,0.4,2,0.9,3,1.4
		c12,5.8,26.5,13.2,27,12.2c0.5-1.1-13.9-8.8-25.4-15.4c-2.6-1.5-4.7-2.8-6.6-4.1c11.5,5.5,24.4,11.8,24.9,10.9
		c0.5-0.9-10.9-7-21.6-12.9c1.1,0.5,2.3,1,3.5,1.5c12.8,5.8,28.5,13.5,29.1,12.3c0.6-1.1-14.9-9-27.3-15.8c-1.9-1-3.6-2-5.1-2.9
		c12.6,5.6,27.3,12.5,27.9,11.4c0.6-1.1-14.9-8.7-27.2-15.3c2.8,0.8,6,1.9,10,3.6c11.5,4.9,25.5,11.3,26,10.3
		c0.5-1-13.4-7.7-24.6-13.4c-2.6-1.4-4.8-2.6-6.7-3.8c0.8,0.3,1.5,0.6,2.4,0.9c12.8,5.3,28.4,12.2,28.9,11c0.5-1.1-15-8.3-27.3-14.5
		c-1.4-0.7-2.6-1.3-3.7-2c1.5,0.5,3.1,1.1,4.9,1.8c11.9,4.7,26.5,11,26.9,9.9c0.5-1-14-7.5-25.5-13.1l-0.5-0.3
		c11.6,4.5,25.6,10.3,26,9.3c0.4-1-12.9-6.9-24-12.1c1.6,0.5,3.3,1.1,5.1,1.8c11.6,4.3,25.7,10.1,26.1,9c0.4-1-13.5-7-24.6-12.1
		c0.3,0.1,0.6,0.2,0.9,0.3c13.5,4.9,29.9,11.4,30.4,10.2c0.5-1.2-15.9-8-28.9-13.9c-3.3-1.5-6.1-2.9-8.4-4.2
		c9.1,3.3,17.4,6.2,17.7,5.5c0.3-0.7-7.4-4.1-16.1-7.8c1.2,0.4,2.5,0.8,3.9,1.3c13.5,4.6,30.1,10.8,30.5,9.6
		c0.4-1.2-16-7.7-29.1-13.2c-3.5-1.5-6.4-2.9-8.9-4.2l0.3,0.1c13.2,4.3,29.3,10.1,29.7,9c0.4-1.1-15.6-7.2-28.4-12.5
		c-1.3-0.5-2.4-1-3.5-1.5c2,0.5,4.3,1.1,6.8,1.9c13.1,4.1,29.1,9.7,29.5,8.5c0.4-1.1-15.1-6.8-27.8-11.8c0.3,0.1,0.7,0.2,1,0.3
		c12.8,3.9,28.4,9.1,28.8,8c0.4-1.1-15.2-6.6-27.6-11.4c-3.1-1.2-5.6-2.3-7.8-3.4c0.9,0.2,1.7,0.5,2.7,0.7
		c12.7,3.7,28.2,8.7,28.5,7.6c0.3-1-12.6-5.5-24.3-9.8c1.6,0.4,3.3,0.8,5.2,1.3c13.2,3.7,29.4,8.8,29.8,7.6
		c0.4-1.2-15.7-6.5-28.6-11.2c-2.3-0.8-4.3-1.6-6.1-2.4c2.1,0.4,4.4,0.9,7.1,1.7c12.6,3.4,28,8,28.4,6.9c0.4-1.1-15-6-27.3-10.3
		c-1.7-0.6-3.1-1.1-4.5-1.7c2.2,0.4,4.7,0.9,7.6,1.7c13.4,3.4,29.8,8.1,30.1,6.9c0.3-1.2-16-6.2-29.1-10.6c-2.6-0.9-4.8-1.7-6.8-2.5
		c2,0.4,4.3,0.8,6.9,1.4c12.9,3.2,28.7,7.5,29,6.4c0.3-1.1-15.4-5.8-28.1-9.9c-1.5-0.5-2.8-0.9-4.1-1.4c1.9,0.3,4,0.7,6.3,1.3
		c13.6,3.2,46.4,12,46.7,10.7c0.4-1.3-32.4-10.3-45.7-14.4c-3.5-1.1-6.4-2.2-8.9-3.2c0.8,0.2,1.7,0.4,2.6,0.5
		c12.8,2.8,28.5,6.8,28.8,5.7c0.3-1.1-15.3-5.3-27.9-9.1c-1.5-0.4-2.8-0.9-4-1.3c12.7,2.8,26.2,5.9,26.5,4.9
		c0.3-1.1-15.5-5.3-28.9-9.1c2.8,0.3,6,0.8,9.9,1.5c13.7,2.8,30.6,6.6,30.9,5.4c0.3-1.2-16.5-5.4-30-9.1c-2.4-0.7-4.5-1.3-6.3-2
		c13.2,2.6,27.6,5.6,27.8,4.5c0.2-0.9-10.2-3.6-21.4-6.5c0.8,0.1,1.5,0.3,2.4,0.4c13.6,2.5,30.3,6,30.5,4.8c0.2-1.2-16.4-5-29.7-8.5
		c-2.1-0.5-3.9-1.1-5.6-1.6c1.7,0.2,3.6,0.5,5.7,0.8c13.6,2.3,30.3,5.6,30.6,4.5c0.2-1-10.8-3.6-22.1-6.3
		c13.5,2.2,28.9,5.1,29.1,3.9c0.2-1.2-15.7-4.6-29.3-7.8c12.9,2,27.3,4.6,27.6,3.5c0.2-1.2-16.2-4.5-29.4-7.5
		c-3.2-0.7-5.9-1.5-8.3-2.3c13.3,1.9,29.3,4.7,29.5,3.5c0.2-1.2-16.2-4.3-29.4-7.2c-0.7-0.2-1.3-0.3-2-0.5c1.5,0.1,3.2,0.3,4.9,0.6
		c13.8,1.9,30.8,4.6,31,3.4c0.2-1.2-16.7-4.3-30.4-7.1c-0.9-0.2-1.7-0.4-2.5-0.6c11.7,1.5,23.9,3.3,24.1,2.3
		c0.2-1.1-15.6-3.8-28.4-6.4c-2.7-0.5-5-1.1-7.1-1.7c1.7,0.1,3.5,0.3,5.5,0.5c12.3,1.4,27.5,3.6,27.7,2.6c0.2-1-15-3.5-27.2-5.8
		c-1.5-0.3-2.9-0.6-4.2-0.9c0.6,0.1,1.3,0.1,1.9,0.2c13.3,1.4,29.6,3.6,29.8,2.5c0.1-0.9-11.1-2.8-22.4-4.8c1.9,0.1,3.9,0.2,6.2,0.4
		c14,1.4,31.3,3.5,31.4,2.3c0.2-1.2-17.1-3.7-30.9-6.1c-2.5-0.4-4.7-0.9-6.7-1.4c10.7,1,20.8,2,20.9,1.2c0.1-0.9-9.6-2.4-19.9-4
		c3.4-0.1,7.4-0.2,12.7,0.2c13.4,1,30,2.8,30.1,1.6c0.1-1.2-16.3-3.3-29.6-5.3c-5.4-0.8-9.3-1.8-12.7-2.8c11.7,0.8,24.8,2,24.9,1
		c0.1-1.1-15.1-2.8-27.4-4.5c-0.7-0.1-1.5-0.2-2.1-0.3c2.4-0.1,5.1,0,8.3,0.1c12.8,0.7,28.5,2.1,28.6,1c0.1-1.1-15.6-2.8-28.3-4.4
		c-2.5-0.3-4.6-0.7-6.5-1.1c2.3-0.1,4.9-0.1,8,0.1c13.3,0.6,29.7,1.9,29.8,0.7c0.1-1.2-16.3-2.7-29.5-4.3c-4.1-0.5-7.4-1.1-10.3-1.8
		c0.7,0,1.5,0,2.3,0.1c12.9,0.5,28.8,1.5,28.9,0.4c0.1-1.1-15.8-2.4-28.6-3.9c-1.6-0.2-3.1-0.4-4.4-0.6c2.7-0.2,5.8-0.3,9.5-0.2
		c13.3,0.4,29.6,1.3,29.7,0.1c0.1-1.1-15.6-2.3-28.7-3.6C544.6,428,547,427.9,549.7,428z"></path>
	<path d="M536.4,400c-0.1,0-0.3,0-0.4,0C536.4,400,536.7,400,536.4,400z"></path>
	<path d="M480.6,606.7c0.4,0.2,0.8,0.4,1.2,0.7C481.3,607.1,480.7,606.8,480.6,606.7z"></path>
	<path d="M480.5,635.9c-2.8-2.2-5-4.2-6.9-5.9c9.9,6.5,20.2,13.5,20.7,12.7c0.7-1-12.4-10.3-22.8-18.2c-1.6-1.2-3-2.3-4.3-3.4
		c1,0.6,2,1.2,3.2,1.9c10.5,6.7,23.3,15.3,23.9,14.4c0.6-0.9-10.9-8.9-20.7-16.1c2.5,1.2,5.4,2.7,8.8,4.8
		c10.9,6.7,24.2,15.4,24.9,14.4c0.7-1-12.5-9.9-22.9-17.3c-2.7-2-4.9-3.7-6.8-5.3c1.5,0.8,3.1,1.6,4.8,2.7
		c10.9,6.5,24.3,14.9,24.9,13.9c0.6-1-12.5-9.6-23-16.9c-2.5-1.8-4.6-3.4-6.4-4.8c1,0.5,2.1,1.1,3.3,1.8c11,6.4,24.4,14.6,25,13.6
		c0.6-1-12.7-9.4-23.2-16.5c-2.1-1.4-3.9-2.8-5.5-4c2,0.9,4.3,2.1,6.9,3.5c11.1,6.2,24.7,14.2,25.3,13.3l-29.1-17.6
		c-0.1-0.1-0.1-0.1,0,0c-0.2-0.1-0.5-0.3-0.7-0.4l-36.7-22.2c-0.5,0.7,14.5,10,25.1,17.1c2.1,1.4,4,2.7,5.6,4
		c-2-0.9-4.3-2.1-6.9-3.6c-11.1-6.3-26.1-15.4-26.6-14.7c-0.5,0.7,14.4,10.2,24.9,17.4c2.6,1.8,4.6,3.3,6.4,4.8
		c-1-0.6-2.1-1.2-3.3-1.8c-11-6.4-25.9-15.7-26.3-15c-0.5,0.8,14.2,10.4,24.6,17.8c2.7,1.9,4.8,3.6,6.7,5.2c-1.5-0.8-3.2-1.7-5-2.8
		c-11-6.6-25.9-16.3-26.4-15.5c-0.5,0.7,13.7,10.4,24,17.9c-2.4-1.2-5.1-2.6-8.4-4.7c-10.6-6.6-24.9-16.2-25.4-15.5
		c-0.5,0.7,13.6,10.6,23.6,18.1c1.3,1,2.4,1.8,3.5,2.7c-1.3-0.7-2.7-1.6-4.2-2.5c-11-7-25.8-17.2-26.3-16.5
		c-0.5,0.7,14.1,11.3,24.4,19.2c3.1,2.4,5.5,4.5,7.4,6.3c-9-6-18.2-12.4-18.6-11.8c-0.5,0.6,10.5,8.9,19.7,16.1
		c-2.1-1.2-4.4-2.6-7-4.4c-11-7.5-25.8-18.2-26.3-17.5c-0.5,0.7,14,11.8,24.3,20.2c1.5,1.2,2.8,2.4,4,3.4c-2.2-1.3-4.7-2.8-7.5-4.8
		c-5.3-3.7-15.6-11.4-24.7-18.1c-4.5-3.3-8.8-6.4-11.9-8.6c-3.1-2.2-5.1-3.6-5.2-3.4c-0.1,0.2,1.7,1.8,4.6,4.2c3,2.4,7,5.7,11.4,9.3
		c8.8,7.1,18.8,15.1,23.8,19.3c3,2.5,5.3,4.7,7.2,6.7c-0.9-0.6-1.8-1.3-2.8-1.9c-10.8-7.8-25.3-19.1-25.9-18.4
		c-0.6,0.7,13.7,12.3,23.7,21.1c2.2,1.9,4,3.7,5.6,5.3c-1.7-1.1-3.6-2.4-5.7-4c-10.2-7.7-24-18.8-24.6-18.1
		c-0.5,0.7,13,12.1,22.5,20.6c0.8,0.8,1.6,1.5,2.3,2.2c-1.9-1.2-3.9-2.6-6.2-4.4c-9.8-7.6-22.9-18.5-23.5-17.9
		c-0.5,0.6,12.4,11.9,21.5,20.3c3.6,3.4,6.1,6.1,8.2,8.6l-0.4-0.3c-10.5-8.4-24.6-20.5-25.3-19.9c-0.5,0.6,8.6,9,17.2,17.1
		c-2.8-1.8-6-4-9.9-7.3c-10-8.4-23.5-20.4-24.1-19.8c-0.6,0.6,12.7,12.9,21.9,22.2c1.5,1.5,2.8,2.8,3.9,4.1
		c-10-8.7-21.1-18.7-21.6-18.1c-0.5,0.6,10.5,11.4,19.9,20.8c-1.3-1-2.6-2.1-4.1-3.4c-10-8.9-23.4-21.5-24-20.9
		c-0.6,0.6,12.5,13.6,21.7,23.2c1.4,1.5,2.7,2.9,3.8,4.2c-9.1-8.4-21.1-20-21.7-19.5c-0.6,0.6,11.4,12.8,19.8,22
		c1.5,1.7,2.8,3.2,4,4.6c-1.5-1.3-3.2-2.7-5-4.5c-9.5-8.9-22.1-21.7-22.7-21.1c-0.6,0.6,11.8,13.6,20.4,23.4
		c0.3,0.3,0.5,0.6,0.8,0.9c-9.7-9.5-21.5-21.7-22.2-21.1c-0.7,0.6,12.4,14.8,21.4,25.3c0.7,0.8,1.3,1.6,1.9,2.3c-1-0.9-2-1.9-3-2.9
		c-9.5-9.6-22.3-23.2-22.9-22.6c-0.6,0.6,11.7,14.5,20.4,24.9c2.1,2.5,3.8,4.8,5.2,6.8c-9.4-9.7-21.7-23.4-22.3-22.8
		c-0.6,0.6,9.9,13,18.2,23.3c-9.6-10.3-21.7-24.2-22.4-23.6c-0.6,0.5,8.1,11.2,16,21.3c-8.9-10-19.5-22.4-20.1-21.8
		c-0.7,0.6,11.3,15.4,19.6,26.5c1.3,1.7,2.4,3.3,3.4,4.8c-1.2-1.3-2.5-2.6-3.9-4.2c-9.1-10.4-21.1-25.2-21.8-24.6
		c-0.5,0.4,5.8,8.8,12.4,17.7c-0.6-0.7-1.3-1.5-2-2.3c-9.2-11-21.4-26.5-22.1-26c-0.6,0.5,11.2,16.3,19.4,28.1
		c1.5,2.1,2.7,4.1,3.8,5.8c-8.3-10.3-17.5-22.5-18.2-22c-0.7,0.5,9.5,14.8,17.2,26.2c-2-2.1-4.1-4.6-6.6-7.8
		c-8.7-11.2-20.2-27.1-20.8-26.6c-0.7,0.5,10.4,16.6,18.1,28.6c1.1,1.7,2,3.2,2.9,4.7c-6.7-9.2-13.6-18.8-14.1-18.4
		c-0.7,0.5,9.3,15.5,16.1,26.7c1.6,2.7,2.9,5,4,7.1c-0.9-1.1-1.8-2.4-2.8-3.8c-8.1-11.3-18.8-27.4-19.5-26.9
		c-0.7,0.5,9.5,16.8,16.5,28.8c1,1.8,1.9,3.4,2.7,5c-1-1.3-2-2.6-3-4.2c-7.5-11-17.3-26.5-18.1-26c-0.7,0.5,8.7,16.2,15.2,27.8
		c1.1,2,2,3.8,2.8,5.5c-1.4-1.9-3-4-4.6-6.6c-7.5-11.6-17.4-27.9-18.1-27.5c-0.7,0.4,8.7,17,15.1,29.2c1.1,2.1,2,4.1,2.8,5.8
		c-1.1-1.5-2.2-3.2-3.4-5.2c-6.9-11.1-15.8-26.7-16.5-26.3c-0.7,0.4,7.8,16.2,13.6,27.9c0.8,1.6,1.5,3.1,2.1,4.5
		c-1.4-2-3-4.4-4.7-7.3c-6.9-11.8-16-28.5-16.7-28.1c-0.7,0.4,7.1,15.8,12.9,28.1c-0.8-1.2-1.6-2.6-2.4-4.1
		c-3.2-5.8-9.2-17.1-14.4-27c-2.6-4.9-5-9.5-6.8-12.8c-1.8-3.3-3-5.4-3.1-5.3c-0.2,0.1,0.8,2.3,2.4,5.7c1.6,3.4,3.8,8.1,6.1,13.2
		c4.8,10.1,10.3,21.7,12.9,27.7c1.3,2.9,2.3,5.4,3,7.7c-0.5-0.9-1-1.8-1.5-2.7c-6.2-11.8-14.3-28.4-15-28c-0.7,0.3,6.4,16,11.5,28.2
		c-0.3-0.5-0.5-1-0.8-1.5c-6.2-12.3-14.1-29.5-14.8-29.1c-0.7,0.3,6.8,17.8,11.8,30.5c0.4,1.2,0.8,2.2,1.2,3.3
		c-1.1-1.9-2.2-4-3.4-6.5c-5.9-12.6-13.5-30.2-14.3-29.9c-0.7,0.3,6.4,18.1,11.2,31.1c1.2,3.4,2.1,6.3,2.8,8.9
		c-0.2-0.4-0.4-0.9-0.6-1.3c-5.8-13.1-13.2-31.4-13.9-31.1c-0.7,0.3,4.4,14.1,8.7,26.6c-0.2-0.6-0.5-1.2-0.8-1.8
		c-4.9-11.7-11.1-28.1-11.7-27.8c-0.7,0.3,5.1,16.7,8.9,28.8c0.9,2.8,1.5,5.3,2,7.4c-4.9-12.7-10.3-27.6-11-27.3
		c-0.8,0.3,5.3,19.1,9.2,32.9c0.3,1.1,0.6,2.1,0.8,3.1c-4-11.1-8.4-24.2-9.1-24c-0.7,0.2,3.8,15.5,7,27.3c-0.6-1.5-1.3-3.3-2-5.2
		c-4.1-11.7-9.1-28.2-9.8-27.9c-0.7,0.3,3.9,16.6,6.8,28.7c-0.1-0.2-0.1-0.4-0.2-0.6c-4-12.2-8.8-29.2-9.6-29.1
		c-0.8,0.2,3.7,17.3,6.4,29.8c0.1,0.6,0.3,1.3,0.4,1.9c-0.7-1.9-1.4-4.1-2.2-6.6c-3.9-13.2-8.7-31.7-9.5-31.5
		c-0.8,0.2,3.6,18.8,6.2,32.4c0.7,3.6,1.1,6.6,1.4,9.3c-3.2-11.9-6.9-27.7-7.7-27.5c-0.7,0.2,1.9,13.3,4,24.9
		c-1.2-3.1-2.3-6.8-3.5-11.7c-3.3-13.6-7.1-32.5-7.9-32.4c-0.7,0.1,2.6,19.1,4.6,33c0.3,2.1,0.5,4,0.7,5.7c-2.9-13.7-6.2-32.1-7-32
		c-0.7,0.1,1.8,17.1,3.5,30.8c-0.2-0.9-0.4-1.8-0.6-2.7c-2.5-13.1-5.3-31.3-6-31.1c-0.7,0.1,1.6,18.3,2.9,31.6
		c0.3,3,0.4,5.5,0.5,7.8c-2.1-12.7-4.2-28.4-4.9-28.3c-0.7,0.1,0.8,15.6,1.8,28.3c-0.1-0.9-0.3-1.8-0.5-2.8
		c-1.8-12.8-3.8-30.6-4.5-30.5c-0.7,0.1,0.7,17,1.3,29.8c-0.1-0.9-0.3-1.9-0.4-2.9c-1.5-12.4-3-29.7-3.7-29.6
		c-0.7,0.1,0.4,17.3,0.7,29.8c0,1.5,0.1,2.9,0,4.2c-1.1-12-2-23.9-2.7-23.9c-0.7,0-0.3,14-0.1,26.9c-0.5-2.8-0.9-5.9-1.2-10
		c-0.9-12.7-1.6-30.2-2.3-30.2c-0.7,0-0.4,17.6-0.6,30.3c-0.1,4.4-0.4,7.8-0.8,10.8c0-0.7-0.1-1.5-0.1-2.2
		c-0.6-12.7-0.8-30.3-1.6-30.3l0,45.2c0-0.4,0,1.2,0,2c0-0.5,0-1,0-1.5l0,32c1.3,0,1.4-15.8,1.8-28.5c0.1-4.4,0.5-7.9,0.9-10.8
		c0,0.7,0.1,1.4,0.1,2.1c0.7,12.7,1.3,28.3,2.5,28.3c0.8,0,0.9-7.6,0.9-16.4c0.6,3.2,1.2,6.8,1.6,11.5c1.2,14.2,2.3,31.8,3.9,31.8
		c1.5-0.1,0.7-17.7,0.4-31.9c0-2.3,0-4.4,0.1-6.3c0.8,7.3,1.5,12.9,2.2,12.9c1.1-0.1,0.2-13.9-0.3-26c0.2,1.1,0.3,2.3,0.5,3.5
		c1.6,12.8,3.3,28.7,4.6,28.6c1.1-0.1,0.1-13-0.7-25c0.2,1,0.4,2.1,0.6,3.3c2,13.1,4,29.4,5.4,29.2c1.3-0.1-0.4-16.4-1.6-29.6
		c-0.2-2.9-0.3-5.5-0.4-7.7c2.1,12.6,4.4,26.8,5.6,26.7c1.1-0.2-0.5-13-1.9-25.2c0.3,1.2,0.5,2.4,0.8,3.8c2.7,13.8,5.7,31,7.1,30.7
		c1.4-0.2-1.3-17.4-3.2-31.4c-0.3-2.1-0.5-4.1-0.6-5.9c3,13.4,6.2,29.4,7.5,29.2c1.4-0.2-1.8-17.2-4-30.9c1,2.8,2.1,6,3.2,10.2
		c3.1,12.1,6.5,27.2,7.8,26.9c1.2-0.3-2-15.4-4.2-27.7c-0.5-2.9-0.9-5.4-1.1-7.6c0.2,0.8,0.5,1.6,0.7,2.4
		c3.7,13.3,7.9,29.8,9.3,29.5c1.3-0.3-2.6-16.9-5.5-30.4c-0.3-1.5-0.6-2.8-0.8-4.1c0.5,1.5,1.1,3.1,1.7,4.9
		c3.8,12.3,8,27.5,9.3,27.2c1.2-0.3-2.8-15.6-5.7-28.1c0-0.2-0.1-0.4-0.1-0.6c3.9,11.8,8.3,26.4,9.5,26c1.1-0.4-2.8-14.4-5.9-26.3
		c0.6,1.5,1.3,3.2,2,5.1c4.1,11.6,8.8,26.1,10,25.7c1.2-0.4-3.2-14.8-6.6-26.7c0.1,0.3,0.2,0.6,0.3,0.9
		c5.1,13.4,10.9,30.2,12.3,29.7c1.4-0.5-4.1-17.3-8.3-31c-1.1-3.5-1.8-6.5-2.3-9.1c3.6,9,6.9,17.2,7.7,16.9
		c0.8-0.3-1.8-8.3-4.8-17.3c0.5,1.2,1.1,2.4,1.7,3.8c5.6,13.1,12.1,29.5,13.4,29c1.3-0.5-4.9-17-9.6-30.5c-1.3-3.6-2.2-6.7-2.9-9.4
		l0.1,0.3c5.7,12.6,12.4,28.4,13.7,27.9c1.2-0.5-5.2-16.4-10.2-29.3c-0.5-1.3-0.9-2.5-1.3-3.6c1,1.8,2.1,3.9,3.3,6.3
		c6,12.4,13,27.8,14.2,27.2c1.2-0.6-5.4-15.7-10.6-28.3c0.2,0.3,0.3,0.6,0.5,0.9c6.1,11.9,13.2,26.7,14.4,26.2
		c1.2-0.6-5.7-15.5-11-27.8c-1.3-3-2.3-5.6-3-7.9c0.4,0.8,0.9,1.6,1.4,2.4c6.3,11.6,13.7,26.2,14.8,25.6c1-0.5-4.9-12.8-10.1-24.1
		c0.9,1.4,1.8,2.9,2.8,4.6c6.8,12,14.8,26.9,16,26.3c1.2-0.6-6.6-15.7-12.6-28.1c-1.1-2.2-1.9-4.2-2.7-6c1.2,1.8,2.5,3.8,4,6.1
		c6.7,11.2,14.6,25.2,15.7,24.6c1.1-0.6-6.6-14.7-12.5-26.3c-0.8-1.6-1.5-3-2.1-4.3c1.3,1.8,2.8,3.9,4.4,6.4
		c7.4,11.7,16.1,26.3,17.3,25.7c1.2-0.7-7.3-15.4-13.9-27.6c-1.3-2.4-2.3-4.5-3.2-6.5c1.3,1.6,2.6,3.5,4.1,5.7
		c7.4,11.1,16.1,24.9,17.2,24.2c1.1-0.7-7.4-14.7-14-26.3c-0.8-1.3-1.4-2.6-2.1-3.8c1.2,1.5,2.5,3.2,3.8,5.2
		c8,11.4,26.4,39.9,27.7,39.1c1.3-0.8-17.1-29.4-24.3-41.3c-1.9-3.2-3.3-5.9-4.5-8.3c0.5,0.7,1,1.4,1.6,2.1
		c7.7,10.6,16.9,23.9,18,23.2c1-0.7-8-14.2-15-25.3c-0.8-1.3-1.5-2.5-2.2-3.6c7.8,10.5,16,21.6,16.9,20.9c1-0.7-8.2-14.2-15.9-25.8
		c2,2.1,4.1,4.5,6.6,7.6c8.7,11,19.1,24.8,20.2,24c1.1-0.8-9-14.8-17-26.3c-1.4-2-2.6-3.9-3.6-5.6c8.5,10.4,17.6,22,18.6,21.2
		c0.8-0.6-5.5-9.4-12.3-18.7c0.5,0.6,1,1.2,1.6,1.8c8.9,10.5,19.6,23.8,20.7,22.9c1-0.8-9.4-14.3-17.6-25.4
		c-1.3-1.7-2.4-3.3-3.3-4.8c1.2,1.3,2.5,2.6,3.9,4.2c9.2,10.3,20.1,23.4,21.2,22.6c0.8-0.7-6.1-9.6-13.3-18.8
		c9.2,10.1,19.5,21.9,20.5,21.1c1-0.9-9.4-13.5-18.1-24.3c8.9,9.5,18.7,20.4,19.7,19.6c1-0.9-9.9-13.6-18.5-24.1
		c-2.1-2.6-3.8-4.9-5.2-6.9c9.3,9.6,20.4,21.5,21.3,20.7c0.9-0.8-10.2-13.3-18.9-23.6c-0.4-0.5-0.9-1-1.3-1.5c1.1,1,2.3,2.2,3.6,3.4
		c9.9,9.8,21.8,22.2,22.8,21.4c1-0.9-10.7-13.5-19.9-24c-0.6-0.7-1.1-1.3-1.7-2c8.5,8.2,17.2,16.9,18,16.2
		c0.8-0.8-10.2-12.5-19-22.1c-1.8-2-3.4-3.9-4.7-5.5c1.3,1.1,2.6,2.3,4.1,3.7c9.1,8.5,20,19.2,20.8,18.4c0.8-0.8-10-11.7-18.5-20.8
		c-1-1.1-2-2.2-2.8-3.2c0.5,0.4,0.9,0.8,1.4,1.3c9.9,9,21.8,20.3,22.7,19.5c0.7-0.7-7.3-8.8-15.3-17c1.5,1.2,3.1,2.5,4.8,4
		c10.6,9.3,23.4,21.1,24.3,20.1c0.9-1-11.7-13-21.6-23c-1.8-1.8-3.3-3.4-4.6-5c8.1,7,15.8,13.7,16.5,13c0.6-0.7-6.4-7.5-14-14.7
		c2.9,1.9,6.2,4.1,10.3,7.4c10.4,8.5,23,19.4,23.9,18.4c0.9-1-11.5-12.1-21.3-21.3c-4-3.8-6.6-6.8-8.9-9.5
		c9.2,7.3,19.3,15.7,20,14.9c0.7-0.9-10.9-10.9-20-19.2c-0.6-0.5-1.1-1-1.6-1.5c2,1.3,4.2,2.8,6.8,4.8c10.2,7.8,22.4,17.7,23.2,16.8
		c0.7-0.9-11.4-11.1-20.9-19.5c-1.9-1.7-3.4-3.2-4.8-4.6c2,1.2,4.1,2.7,6.6,4.5c10.7,7.9,23.7,18.1,24.4,17.1c0.8-1-12-11.3-22.1-20
		c-3.2-2.7-5.6-5-7.6-7.2c0.6,0.4,1.2,0.9,1.9,1.3c10.5,7.5,23.2,17.1,23.9,16.2c0.7-0.9-11.8-10.8-21.8-19c-1.2-1-2.4-2-3.4-2.9
		c2.3,1.3,5,2.9,8.1,5.1c10.9,7.6,24.1,17.2,24.8,16.3c0.7-0.9-11.8-10.5-22-18.7c1.8,1,3.9,2.3,6.1,3.8c10.2,6.8,38.1,27,38.9,26
		C518,663.7,490.2,643.4,480.5,635.9z"></path>
	<path d="M482.1,607.6c-0.1-0.1-0.2-0.1-0.3-0.2C482.1,607.6,482.4,607.7,482.1,607.6z"></path>
	<path d="M305.8,676.4c-0.7,0-1,17.6-1.6,30.3c-0.1,2.6-0.3,4.8-0.6,6.8c-0.2-2.2-0.4-4.8-0.5-7.8c-0.2-12.7,0-30.3-0.7-30.4
		c-0.7,0-1.5,17.6-2.4,30.2c-0.2,3.1-0.6,5.7-0.9,8c0-1.2-0.1-2.4,0-3.7c0.1-12.7,0.8-30.3,0-30.3c-0.8,0-1.9,17.5-3.2,30.2
		c-0.3,3.3-0.8,6-1.2,8.4c-0.1-1.7-0.1-3.6,0-5.7c0.4-12.8,1.6-30.5,0.8-30.6c-0.8-0.1-2.4,17-4,29.7c-0.1-2.7-0.1-5.8,0.1-9.6
		c0.7-12.5,2.4-29.6,1.7-29.7c-0.7-0.1-2.7,17-4.6,29.4c-0.2,1.6-0.5,3-0.8,4.3c0.1-1.5,0.1-3.1,0.3-4.9c1.1-13,3.2-30.8,2.5-30.9
		c-0.7-0.1-3.3,17.8-5.6,30.6c-0.7,3.9-1.4,6.9-2.2,9.5c1.3-10.7,2.7-21.9,2.1-22c-0.7-0.1-3.1,13.4-5.4,24.9
		c0.1-2.4,0.3-5.1,0.7-8.3c1.7-13.2,4.7-31.2,4-31.4c-0.8-0.1-4.2,17.9-7.2,30.8c-0.4,1.9-0.9,3.6-1.3,5.1c0.2-2.5,0.5-5.4,1-8.8
		c1-6.4,3.4-19,5.5-30.1c1-5.5,2-10.7,2.6-14.4c0.7-3.8,1-6.1,0.9-6.2c-0.2,0-0.8,2.3-1.7,6c-0.9,3.7-2.1,8.8-3.4,14.3
		c-2.5,11-5.4,23.5-7,29.7c-1,3.8-2,6.8-2.9,9.3c0.2-1,0.4-2.1,0.6-3.3c2.4-13.1,6.5-31.1,5.7-31.3c-0.8-0.2-5.3,17.7-8.9,30.5
		c-0.8,2.8-1.6,5.2-2.4,7.3c0.3-2,0.7-4.3,1.2-6.8c2.7-12.5,7-29.6,6.3-29.8c-0.8-0.2-5.5,16.8-9.4,29c-0.4,1.1-0.7,2.1-1,3
		c0.3-2.2,0.8-4.6,1.5-7.5c2.9-12,7.5-28.5,6.8-28.7c-0.7-0.2-5.7,16.1-9.7,27.8c-1.6,4.7-3.1,8.1-4.6,10.9l0.1-0.4
		c3.5-13,8.9-30.8,8.1-31.1c-0.7-0.2-4.7,11.5-8.8,22.7c0.6-3.3,1.3-7,2.8-11.9c3.8-12.5,9.5-29.6,8.8-29.9
		c-0.7-0.2-6.9,16.8-11.8,28.9c-0.8,1.9-1.5,3.6-2.2,5.2c4.1-12.5,9.2-26.7,8.5-27c-0.7-0.3-6.4,14-11.5,26.3c0.5-1.6,1-3.2,1.6-5.1
		c4.4-12.6,11-29.8,10.3-30.1c-0.7-0.3-7.7,16.8-13.3,28.9c-0.9,1.9-1.7,3.6-2.5,5.1c4.3-11.6,10.7-27.1,10-27.4
		c-0.7-0.3-7.6,15.4-13,26.7c-1,2-1.9,3.8-2.8,5.4c0.6-1.9,1.4-4,2.3-6.4c4.8-12.1,12-28.6,11.3-28.9c-0.7-0.3-8.3,15.9-14.2,27.5
		c-0.2,0.3-0.4,0.7-0.5,1c5.3-12.5,12.4-28,11.7-28.3c-0.7-0.4-9.2,16.9-15.8,29.2c-0.5,0.9-1,1.8-1.4,2.6c0.5-1.2,1-2.5,1.6-3.9
		c5.5-12.3,13.7-29.1,12.9-29.4c-0.7-0.3-9.3,16.2-16,28c-1.6,2.9-3.1,5.2-4.5,7.3c5.8-12.2,14.2-28.6,13.4-29
		c-0.7-0.4-8.6,13.9-15.3,25.2c6.3-12.6,15-28.9,14.2-29.3c-0.7-0.4-7.6,11.6-14.3,22.5c6.2-11.8,14.1-26.1,13.4-26.4
		c-0.7-0.4-10.5,16-18,27.6c-1.2,1.8-2.3,3.4-3.3,4.8c0.7-1.6,1.6-3.3,2.6-5.1c6.6-12.1,16.3-28.5,15.6-29
		c-0.5-0.3-6.2,8.5-12.3,17.7c0.5-0.8,0.9-1.7,1.5-2.6c7.1-12.4,17.5-29.3,16.8-29.7c-0.7-0.4-11.5,16.2-19.7,27.9
		c-1.5,2.1-2.9,4-4.2,5.6c6.9-11.3,15-24.2,14.4-24.6c-0.7-0.4-10.6,14.1-18.7,25.3c1.3-2.6,2.9-5.5,5.1-8.9
		c7.6-12,18.5-28.3,17.9-28.7c-0.7-0.5-12,15.5-20.6,26.8c-1.2,1.6-2.3,3-3.4,4.3c6.3-9.5,13-19.2,12.5-19.6
		c-0.7-0.5-11.4,14.1-19.6,24.3c-1.9,2.5-3.7,4.5-5.3,6.2c0.8-1.2,1.6-2.5,2.6-3.9c7.8-11.5,19.2-27,18.5-27.6
		c-0.7-0.5-12.5,14.7-21.4,25.5c-1.3,1.6-2.6,3-3.7,4.3c0.8-1.3,1.8-2.7,2.9-4.3c7.7-10.8,18.8-25.4,18.2-26
		c-0.7-0.5-12.2,13.8-20.8,23.8c-1.5,1.7-2.8,3.2-4.1,4.5c1.2-2,2.7-4.2,4.5-6.6c8.2-11.1,20.1-26,19.4-26.6
		c-0.7-0.6-12.9,14.1-22.2,24.3c-1.6,1.8-3.1,3.3-4.5,4.7c1-1.5,2.2-3.2,3.7-5c8-10.3,19.5-24.1,18.8-24.7
		c-0.7-0.5-12.5,13-21.4,22.5c-1.2,1.3-2.4,2.5-3.5,3.6c1.4-2.1,3.1-4.4,5.1-6.9c8.6-10.7,21-25.1,20.4-25.7
		c-0.6-0.6-12.3,12.2-21.6,22c0.9-1.2,1.9-2.4,2.9-3.7c4.2-5.1,12.7-14.7,20.1-23.1c3.7-4.2,7-8.1,9.5-11c2.4-2.9,3.9-4.7,3.8-4.9
		c-0.1-0.1-1.9,1.5-4.5,4.2c-2.6,2.7-6.2,6.4-10.1,10.5c-7.7,8.1-16.5,17.4-21.2,22c-2.2,2.2-4.2,4.1-6.1,5.6c0.6-0.8,1.3-1.5,2-2.4
		c8.7-10.1,21.3-23.6,20.6-24.2c-0.6-0.6-12.6,11.7-22,20.9c0.4-0.4,0.7-0.8,1.1-1.3c9.2-10.2,22.2-24,21.6-24.6
		c-0.6-0.6-14,12.8-24,22.2c-0.9,0.8-1.8,1.6-2.6,2.3c1.4-1.7,2.9-3.5,4.8-5.5c9.4-10.2,22.9-23.8,22.3-24.4
		c-0.6-0.6-14.4,12.7-24.7,22c-2.7,2.4-5,4.3-7.2,5.9c0.3-0.3,0.7-0.7,1-1.1c9.9-10.3,24-24.1,23.4-24.7
		c-0.5-0.6-11.4,9.4-21.3,18.1c0.4-0.4,0.9-0.9,1.3-1.4c8.9-9,21.6-21.1,21.1-21.7c-0.5-0.6-13.5,11.2-23.2,19.4
		c-2.3,1.9-4.2,3.5-6.1,4.8c9.8-9.5,21.3-20.2,20.7-20.9c-0.6-0.7-15.5,12.4-26.6,21.5c-0.9,0.7-1.7,1.4-2.5,2
		c8.5-8.1,18.8-17.4,18.3-17.9c-0.6-0.6-12.7,9.7-22.3,17.4c1.2-1.2,2.5-2.5,4-3.9c9.1-8.5,22.1-19.8,21.5-20.4
		c-0.5-0.7-13.6,10.2-23.4,17.9l0.4-0.4c9.5-8.6,23-20.1,22.4-20.8c-0.5-0.7-14.3,10.5-24.5,18.2c-0.5,0.4-1,0.8-1.5,1.1
		c1.5-1.5,3.1-3,5.1-4.7c10.4-9.1,25.1-21.3,24.5-22c-0.6-0.7-15.6,11.1-26.7,19.3c-3,2.2-5.5,3.8-7.8,5.2c9.4-8,22-18.1,21.5-18.8
		c-0.5-0.6-11.2,7.4-20.7,14.3c2.3-2.4,5.1-5.1,8.9-8.3c10.8-8.9,26.1-20.7,25.5-21.4c-0.5-0.7-16.1,10.7-27.6,18.7
		c-1.7,1.2-3.3,2.2-4.8,3.1c10.9-8.8,25.9-20,25.3-20.7c-0.5-0.7-14.5,9.3-26,16.9c0.7-0.6,1.4-1.1,2.2-1.8
		c10.5-8.2,25.4-19.1,24.8-19.8c-0.5-0.7-15.6,9.8-26.8,17.1c-2.5,1.6-4.7,2.9-6.7,4c10.3-7.8,23.1-17,22.7-17.7
		c-0.5-0.7-13.4,8-24.2,14.9c0.7-0.6,1.5-1.1,2.3-1.7c10.4-7.7,25.1-17.9,24.6-18.6c-0.5-0.7-14.6,8.6-25.6,15.4
		c0.8-0.6,1.5-1.1,2.4-1.8c10.2-7.3,24.5-17,24-17.7c-0.5-0.7-15,8.7-25.8,15.1c-1.3,0.8-2.5,1.5-3.7,2.1
		c9.9-6.8,19.7-13.5,19.3-14.2c-0.4-0.7-12.3,6.6-23.4,13.2c2.1-1.8,4.7-3.8,8-6.1c10.5-7.2,25.2-16.6,24.8-17.3
		c-0.4-0.7-15.4,8.4-26.5,14.7c-3.8,2.2-6.9,3.6-9.7,4.8c0.6-0.4,1.2-0.8,1.9-1.3c10.6-7.1,25.6-16.3,25.1-17.1l-38.7,23.4
		c0.3-0.2-1,0.6-1.7,1c0.4-0.3,0.9-0.5,1.3-0.7l-27.4,16.6c0.6,1,14.1-7.1,25.3-13.3c3.9-2.2,7-3.6,9.8-4.8
		c-0.6,0.4-1.1,0.8-1.7,1.2c-10.5,7.1-23.7,15.5-23.2,16.4c0.4,0.6,6.9-3.1,14.6-7.5c-2.4,2.1-5.3,4.4-9.2,7.1
		c-11.7,8.2-26.5,17.8-25.7,19c0.7,1.1,15.6-8.3,27.9-15.6c2-1.2,3.8-2.2,5.5-3.1c-5.9,4.2-10.5,7.6-10.2,8.2
		c0.6,0.9,12.2-6.6,22.5-12.9c-0.9,0.7-1.8,1.4-2.8,2.1c-10.5,7.6-23.6,16.7-23,17.7c0.6,0.9,11.4-6.2,21.6-12.6
		c-0.8,0.6-1.7,1.3-2.6,2c-10.6,7.9-24,17.4-23.3,18.4c0.7,1,14.2-8.2,25.4-15.4c2.5-1.6,4.7-2.9,6.7-3.9
		c-10.2,7.7-21.8,16.3-21.1,17.2c0.6,0.8,11.3-6.5,21.4-13.3c-0.9,0.8-1.9,1.6-3,2.4c-11.1,8.7-25,19.1-24.2,20.2
		c0.8,1,14.9-9.1,26.6-17.1c1.8-1.2,3.4-2.3,5-3.2c-10.7,8.6-23.6,18.6-22.9,19.6c0.8,1,14.6-9.2,26-17.3c-2,2.1-4.5,4.5-7.8,7.3
		c-9.6,8-21.6,17.6-21,18.6c0.7,0.9,13-8.5,23.1-15.8c2.4-1.7,4.5-3.1,6.4-4.3c-0.6,0.5-1.2,1.1-1.9,1.7
		c-10.5,9-23.6,19.8-22.8,20.8c0.8,1,14.2-9.6,25.3-17.9c1.2-0.9,2.3-1.7,3.4-2.5c-1.1,1.1-2.4,2.3-3.8,3.6
		c-9.6,8.5-21.7,18.8-20.9,19.7c0.7,0.9,13-9.1,23.2-16.9l0.5-0.4c-9.2,8.4-20.7,18.4-20,19.2c0.7,0.9,11.9-8.5,21.5-16.1
		c-1.1,1.2-2.4,2.5-3.9,3.8c-9,8.5-20.4,18.6-19.6,19.4c0.8,0.9,12.2-9,21.8-16.7c-0.2,0.2-0.4,0.4-0.7,0.6
		c-10.3,10-23.4,21.9-22.5,22.9c0.9,1,14.2-10.7,25.2-19.9c2.8-2.4,5.3-4.2,7.5-5.7c-6.9,6.8-13.2,13-12.6,13.6
		c0.6,0.6,6.9-4.9,14-11.1c-0.9,0.9-1.8,1.9-2.8,3c-10,10.2-22.7,22.5-21.8,23.5c1,1,13.8-11.1,24.5-20.6c2.9-2.6,5.4-4.5,7.6-6.2
		l-0.2,0.2c-9.5,10.1-21.6,22.2-20.7,23.1c0.9,0.9,13.2-11,23.4-20.5c1-0.9,2-1.8,2.9-2.6c-1.3,1.6-2.8,3.4-4.6,5.4
		c-9.3,10.1-21,22.4-20.1,23.3c0.9,0.9,12.5-10.8,22.4-20.3c-0.2,0.3-0.5,0.5-0.7,0.8c-8.9,10-20.1,22.1-19.2,22.9
		c0.9,0.8,12.4-11,21.9-20.4c2.3-2.3,4.4-4.1,6.3-5.7c-0.6,0.7-1.2,1.4-1.8,2.1c-8.6,10-19.5,22.2-18.6,23
		c0.8,0.7,10.2-9.2,18.8-18.1c-1,1.3-2.1,2.7-3.3,4.2c-8.8,10.6-19.9,23.4-18.9,24.3c1,0.9,12.3-11.7,21.8-21.7
		c1.7-1.8,3.2-3.3,4.6-4.6c-1.2,1.8-2.6,3.7-4.3,5.9c-8.1,10.2-18.4,22.6-17.5,23.4c1,0.8,11.5-11.4,20.3-21
		c1.2-1.3,2.3-2.4,3.3-3.5c-1.2,1.9-2.7,4-4.5,6.3c-8.4,11-19,24.3-18,25.1c1,0.8,11.9-12.3,21-22.7c1.8-2,3.4-3.8,4.9-5.3
		c-1.1,1.8-2.4,3.7-3.9,5.8c-7.8,10.7-17.8,23.7-16.8,24.5c1,0.8,11.2-12,19.8-22.2c1-1.2,1.9-2.2,2.8-3.2c-1,1.6-2.2,3.4-3.5,5.4
		c-8,11.4-28.4,38.6-27.2,39.5c1.2,0.9,21.7-26.3,30.4-37.1c2.3-2.9,4.4-5.2,6.3-7.1c-0.5,0.7-0.9,1.4-1.4,2.2
		c-7.3,10.9-16.6,24.1-15.6,24.8c1,0.7,10.6-12.3,18.6-22.7c0.9-1.2,1.8-2.3,2.7-3.3c-7.1,10.9-14.8,22.4-13.9,23.1
		c1,0.7,10.5-12.6,18.7-23.8c-1.3,2.6-2.8,5.4-4.9,8.8c-7.3,11.9-16.7,26.4-15.6,27.2s10.8-13.6,18.9-25c1.4-2,2.8-3.7,4-5.3
		c-6.9,11.6-14.5,24.1-13.5,24.7c0.9,0.6,6.9-8.4,13.3-18c-0.4,0.7-0.8,1.4-1.2,2.1c-6.8,12-15.5,26.7-14.4,27.4
		c1.1,0.7,10.1-13.8,17.7-25.3c1.2-1.8,2.3-3.4,3.3-4.8c-0.7,1.6-1.6,3.3-2.6,5.2c-6.5,12.2-14.9,27-13.7,27.7c1,0.5,6.9-9.1,13-19
		c-6.3,12.2-13.7,25.9-12.5,26.6c1.2,0.7,9.3-13.5,16.5-25.5c-5.7,11.7-12.5,24.8-11.3,25.4c1.2,0.7,9.2-14,15.9-25.8
		c1.7-2.9,3.2-5.2,4.6-7.3c-5.6,12.2-12.8,26.7-11.6,27.3c1.2,0.6,8.8-14.3,15.3-26.1c0.3-0.6,0.7-1.2,1-1.8c-0.6,1.4-1.2,3-1.9,4.6
		c-5.6,12.8-12.8,28.4-11.6,29c1.3,0.6,8.8-14.9,15.2-27.3c0.4-0.8,0.8-1.6,1.2-2.3c-4.6,10.9-9.5,22.3-8.5,22.7
		c1.1,0.5,7.9-14,13.6-25.7c1.2-2.5,2.3-4.5,3.4-6.4c-0.5,1.6-1.1,3.3-1.9,5.2c-4.5,11.6-10.4,25.7-9.3,26.2
		c1.1,0.4,7.2-13.6,12.4-24.9c0.6-1.4,1.3-2.7,1.9-3.8c-0.2,0.6-0.4,1.2-0.6,1.8c-4.6,12.5-10.6,27.9-9.4,28.4
		c1,0.4,5.4-10.1,10-20.6c-0.5,1.8-1.1,3.8-1.8,5.9c-4.5,13.4-10.5,29.7-9.2,30.2c1.3,0.5,7.6-15.7,12.9-28.7c1-2.3,1.9-4.4,2.8-6.2
		c-3.3,10.2-6.4,19.9-5.5,20.2c0.9,0.3,4.4-8.8,8.1-18.7c-0.5,3.4-1.3,7.3-2.7,12.4c-3.7,13-8.6,28.8-7.3,29.3
		c1.3,0.4,6.6-15.3,11.1-28c1.9-5.1,3.6-8.8,5.2-11.9c-3,11.4-6.5,24-5.4,24.4c1.1,0.4,5.5-14.3,9.4-26.1c0.2-0.7,0.5-1.4,0.7-2
		c-0.3,2.4-0.8,5-1.5,8.1c-2.9,12.5-6.8,27.8-5.6,28.1c1.2,0.3,5.4-14.9,9.1-27.2c0.7-2.4,1.4-4.5,2.1-6.3c-0.3,2.3-0.7,4.9-1.3,7.9
		c-2.7,13.1-6.3,29.1-5,29.4s5.2-15.6,8.7-28.5c1.1-4,2.2-7.2,3.2-9.9c-0.1,0.7-0.2,1.5-0.4,2.3c-2.2,12.7-5.4,28.4-4.2,28.6
		c1.2,0.2,4.6-15.4,7.6-27.9c0.4-1.6,0.8-3,1.1-4.3c-0.2,2.7-0.4,5.8-1,9.5c-1.9,13.1-4.7,29.3-3.4,29.5c1.3,0.2,4.2-15.2,6.9-28
		c-0.1,2.1-0.3,4.5-0.6,7.2c-1.5,12.2-6.8,46.2-5.4,46.5c1.4,0.2,6.7-33.8,9-45.9c0.7-3.5,1.4-6.3,2.1-8.8
		c-1.2,11.8-2.6,24.1-1.5,24.2c1.3,0.1,3.5-15.8,5.5-28.7c0.3-2,0.7-3.8,1-5.4c0,1.2-0.1,2.4-0.2,3.7c-0.9,12.4-2.5,27.8-1.3,27.9
		c1.1,0.1,2.8-13.8,4.4-25.8c0.1,2.8,0.2,6,0,10c-0.6,12.8-1.8,28.6-0.5,28.8c1.3,0.1,2.7-15.6,4.2-28.4c0.4-3.4,0.9-6.1,1.3-8.6
		c0.1,1.7,0.1,3.5,0,5.5c-0.3,12.7-1,28.4,0.3,28.5c1.3,0,2.2-15.6,3.3-28.3c0.3-3.1,0.6-5.7,1-8c0,1.2,0.1,2.4,0.1,3.8
		c0,12.7-0.3,28.5,1,28.5c1.2,0,1.8-15.7,2.5-28.4c0.2-2.6,0.4-4.8,0.6-6.8c0.2,2.2,0.4,4.8,0.5,7.8c0.4,12.8,0.5,28.5,1.8,28.5
		l0-34c0-0.2,0-0.1,0,0c0-0.3,0-0.5,0-0.8L305.8,676.4z"></path>
	<path d="M305.8,720.1c0,0.4,0,0.9,0,1.3C305.9,720.9,305.9,720.3,305.8,720.1z"></path>
	<path d="M305.9,721.8c0-0.1,0-0.3,0-0.4C305.9,721.9,305.9,722.2,305.9,721.8z"></path>
	<path d="M131.2,606.6c-0.4,0.2-0.7,0.5-1.1,0.7C130.5,607.1,131,606.7,131.2,606.6z"></path>
	<path d="M122.8,598.9c-1.4,0.9-2.9,1.9-4.6,3c-10.8,6.7-24.4,14.6-23.9,15.6c0.6,1,14.3-6.6,25.6-12.5c2.7-1.4,5.1-2.5,7.3-3.4
		c-1,0.7-2,1.4-3.1,2.1c-10.8,6.8-24.3,14.9-23.7,15.9c0.6,1,14.2-6.8,25.4-12.9c2.3-1.2,4.3-2.2,6.1-3c-1.8,1.4-3.8,2.9-6.3,4.5
		c-10.7,7-24,15.2-23.5,16.2l29.1-17.6c0.1-0.1,0.1-0.1,0.1,0c0.2-0.1,0.5-0.3,0.7-0.4l36.7-22.2c-0.5-0.7-15.6,8.2-26.8,14.3
		c-2.3,1.2-4.3,2.2-6.1,3.1c1.8-1.4,3.8-2.8,6.3-4.4c10.7-6.9,25.8-15.9,25.3-16.7c-0.4-0.8-15.7,8-27,13.9
		c-2.7,1.4-5.1,2.6-7.2,3.5c1-0.7,2-1.3,3.1-2c10.8-6.8,26-15.6,25.5-16.4c-0.4-0.8-15.8,7.7-27.1,13.5c-2.9,1.5-5.4,2.6-7.7,3.5
		c1.4-1,3-2,4.8-3.1c11-6.7,26.4-15.4,26-16.2c-0.4-0.8-15.6,7.3-27,13c2.2-1.6,4.7-3.3,8-5.3c10.7-6.3,25.8-14.6,25.4-15.4
		c-0.4-0.7-15.7,7.2-26.9,12.6c-1.4,0.7-2.7,1.3-4,1.8c1.3-0.8,2.6-1.6,4.2-2.5c11.3-6.5,27.2-15,26.8-15.8
		c-0.4-0.8-16.5,7.3-28.3,12.8c-3.5,1.6-6.5,2.8-9.1,3.7c9.5-5.2,19.4-10.5,19-11.1c-0.4-0.7-12.7,5.3-23.4,10.1
		c2-1.3,4.3-2.7,7.1-4.3c11.6-6.3,28-14.6,27.6-15.4c-0.4-0.8-17,7.1-29.1,12.4c-1.8,0.8-3.4,1.4-4.9,2c2.1-1.4,4.6-2.9,7.7-4.5
		c5.7-3,17.3-8.7,27.3-13.8c5-2.5,9.7-4.9,13.1-6.6c3.4-1.8,5.5-3,5.4-3.1c-0.1-0.2-2.3,0.7-5.8,2.2c-3.5,1.5-8.3,3.6-13.4,5.9
		c-10.3,4.6-22,9.9-27.9,12.4c-3.6,1.5-6.6,2.6-9.2,3.4c0.9-0.5,1.9-1,3-1.6c11.9-6.1,28.5-13.9,28.1-14.8
		c-0.4-0.8-17.2,6.6-29.5,11.7c-2.7,1.1-5.1,2-7.3,2.6c1.8-1,3.8-2.1,6.1-3.3c11.5-5.7,27.5-13,27.2-13.8
		c-0.4-0.8-16.6,6.2-28.5,10.8c-1.1,0.4-2.1,0.8-3,1.1c1.9-1.1,4.1-2.3,6.7-3.6c11.1-5.4,26.8-12.3,26.5-13.1
		c-0.3-0.8-16.1,5.8-27.7,10.2c-4.6,1.8-8.2,2.8-11.3,3.5l0.4-0.2c12.2-5.7,29.3-13,28.9-13.9c-0.3-0.7-11.9,3.7-23,7.9
		c2.8-1.7,6.2-3.6,10.9-5.7c11.9-5.4,28.6-12.3,28.3-13.1c-0.3-0.8-17.2,5.7-29.5,10.1c-2,0.7-3.7,1.3-5.4,1.7
		c12.1-5.2,26-10.9,25.7-11.7c-0.3-0.8-14.8,4.5-27.4,8.9c1.5-0.7,3.1-1.4,4.9-2.2c12.3-5.2,29.5-11.9,29.2-12.8
		c-0.3-0.9-17.6,5.5-30.3,9.6c-2,0.6-3.7,1.2-5.4,1.6c11.4-4.7,27.1-10.7,26.8-11.5c-0.3-0.8-16.5,4.9-28.3,8.7
		c-2.2,0.7-4.1,1.2-5.8,1.7c1.8-0.9,3.8-1.8,6.2-2.7c12.1-4.8,29-11,28.6-11.9c-0.3-0.8-17.3,4.9-29.8,8.7c-0.4,0.1-0.7,0.2-1.1,0.3
		c12.7-4.9,28.7-10.6,28.4-11.5c-0.3-0.9-18.6,5.1-31.9,9c-1,0.3-2,0.5-2.9,0.8c1.2-0.5,2.5-1,3.9-1.6c12.6-4.8,30.3-10.8,30-11.7
		c-0.3-0.9-18.1,4.8-31.1,8.4c-3.2,0.9-5.9,1.5-8.3,2c12.7-4.7,30.2-10.5,29.9-11.4c-0.3-0.9-15.9,3.9-28.6,7.4
		c13.2-4.7,30.8-10.4,30.5-11.3c-0.3-0.8-13.5,3-25.9,6.4c12.7-4.3,28.2-9.2,27.9-10.1c-0.3-0.9-18.6,4.3-32,7.7
		c-2.1,0.5-4,0.9-5.7,1.3c1.6-0.6,3.4-1.3,5.4-2c13.1-4.4,31.3-9.9,31.1-10.8c-0.2-0.7-10.4,1.9-21.1,4.6c0.9-0.3,1.9-0.6,2.8-1
		c13.6-4.4,32.7-9.9,32.4-10.9c-0.3-0.9-19.4,4.2-33.4,7.4c-2.5,0.6-4.8,1-6.9,1.4c12.6-3.9,27.3-8.1,27.1-8.9
		c-0.3-0.9-17.3,3.4-30.8,6.4c2.7-1.1,5.8-2.2,9.7-3.4c13.6-4.1,32.5-9.1,32.3-10.1c-0.2-0.9-19.3,3.7-33.1,6.6
		c-2,0.4-3.7,0.7-5.4,1c11-3.1,22.4-6.2,22.2-6.9c-0.2-0.9-17.8,3.2-30.7,5.8c-3.1,0.6-5.7,1-8,1.3c1.4-0.5,2.9-0.9,4.5-1.4
		c13.4-3.8,32.1-8.4,31.9-9.3c-0.2-1-19,3.2-32.7,5.8c-2,0.4-3.9,0.7-5.6,0.9c1.5-0.5,3.1-1,4.9-1.5c12.8-3.5,30.7-7.6,30.5-8.6
		c-0.2-0.9-18.2,2.9-31.2,5.2c-2.2,0.4-4.2,0.7-6.1,0.9c2.2-0.8,4.8-1.5,7.7-2.3c13.4-3.4,32-7.6,31.8-8.6c-0.2-1-18.9,2.8-32.5,5
		c-2.4,0.4-4.5,0.7-6.4,0.9c1.8-0.6,3.8-1.1,6-1.7c12.7-3.1,30.3-6.8,30.1-7.8c-0.2-0.9-17.9,2.4-30.8,4.4c-1.8,0.3-3.4,0.5-4.9,0.7
		c2.4-0.8,5.1-1.5,8.3-2.3c13.4-3.1,32-6.9,31.8-7.8c-0.2-0.9-17.2,2.1-30.6,4.1c1.4-0.4,2.9-0.8,4.6-1.1c6.4-1.4,19-3.9,30-6.1
		c10.9-2.2,20.3-4.2,20.2-4.6c-0.1-0.4-9.5,1-20.5,2.7c-11,1.7-23.7,3.8-30.2,4.7c-3.1,0.4-5.8,0.7-8.2,0.8c1-0.2,2-0.5,3-0.7
		c13.1-2.8,31.2-6.1,31.1-7c-0.1-0.9-17.1,1.8-30.2,3.4c0.5-0.1,1.1-0.2,1.7-0.4c13.5-2.8,32.1-6,32-6.9c-0.2-0.9-18.9,1.9-32.6,3.5
		c-1.2,0.1-2.4,0.2-3.5,0.4c2.1-0.6,4.4-1.1,7.1-1.6c13.6-2.6,32.5-5.7,32.4-6.6c-0.2-0.9-19.1,1.7-33,3.2c-3.6,0.4-6.6,0.5-9.3,0.6
		c0.5-0.1,0.9-0.2,1.4-0.3c14.1-2.6,33.6-5.5,33.5-6.5c-0.1-0.9-14.7,0.9-27.9,2.3c0.6-0.1,1.2-0.2,1.9-0.3
		c12.5-2.2,29.8-4.6,29.7-5.5s-17.5,1.2-30.1,2.3c-3,0.3-5.5,0.4-7.7,0.4c13.4-2.1,29.1-4.3,29-5.2c-0.1-1-19.8,1.2-34.1,2.3
		c-1.1,0.1-2.2,0.1-3.2,0.2c11.6-1.8,25.4-3.6,25.3-4.4c-0.1-0.9-16,0.7-28.2,1.6c1.6-0.3,3.4-0.7,5.5-1c12.3-1.8,29.4-3.8,29.3-4.7
		c-0.1-0.9-17,0.7-29.4,1.5c0.2,0,0.4-0.1,0.6-0.1c12.7-1.8,30.3-3.7,30.2-4.6c-0.1-0.9-17.7,0.6-30.5,1.3c-0.7,0-1.3,0.1-1.9,0.1
		c2-0.4,4.3-0.8,6.8-1.1c13.7-1.8,32.7-3.7,32.6-4.7c-0.1-1-19.1,0.5-32.9,1.1c-3.7,0.2-6.7,0.1-9.4,0c12.3-1.5,28.4-3,28.3-3.8
		c-0.1-0.8-13.5,0-25.2,0.5c3.2-0.7,7-1.5,12-2c13.9-1.5,33.2-3.1,33.1-4c-0.1-1-19.3,0.1-33.3,0.5c-2.1,0.1-4,0.1-5.7,0
		c13.9-1.4,32.6-2.7,32.5-3.7c0-0.9-17.2-0.2-31,0.1c0.9-0.1,1.8-0.2,2.8-0.3c13.3-1.2,31.7-2.4,31.6-3.3c0-0.9-18.5-0.2-31.8-0.1
		c-3,0-5.5-0.1-7.8-0.2c12.8-1,28.6-1.9,28.6-2.8c0-0.9-15.6-0.5-28.4-0.4c0.9-0.1,1.9-0.2,2.9-0.3c12.9-1,30.7-1.8,30.7-2.7
		c0-0.9-17-0.5-29.8-0.6c0.9-0.1,1.9-0.2,3-0.2c12.5-0.9,29.8-1.5,29.8-2.4c0-0.9-17.3-0.6-29.9-0.8c-1.5,0-2.9-0.1-4.2-0.1
		c12-0.6,23.9-1.2,23.9-2c0-0.9-14-0.9-26.9-1.1c2.8-0.4,6-0.8,10-1c12.7-0.7,30.2-1,30.2-1.9c0-0.9-17.6-0.9-30.2-1.3
		c-4.4-0.1-7.8-0.5-10.8-0.9c0.7,0,1.5-0.1,2.2-0.1c12.7-0.5,30.3-0.7,30.3-1.6l-45.2,0c0.4,0-1.2,0-2,0c0.5,0,1,0,1.5,0l-32,0
		c0,1.1,15.7,1.2,28.5,1.7c4.4,0.2,7.9,0.5,10.8,1c-0.7,0-1.4,0.1-2.1,0.1c-12.7,0.6-28.3,0.9-28.3,2c0,0.7,7.5,1,16.4,1.1
		c-3.2,0.5-6.9,1-11.5,1.3C42.6,408,25,408.5,25,409.8c0,1.3,17.6,1.1,31.9,1.4c2.3,0,4.4,0.1,6.3,0.3c-7.3,0.4-13,0.9-13,1.5
		c0,1,13.8,0.8,25.9,0.9c-1.1,0.1-2.3,0.2-3.6,0.3c-12.9,0.9-28.9,1.6-28.9,2.7c0,1,13,0.8,25,0.7c-1,0.1-2.1,0.2-3.3,0.3
		c-13.2,1.1-29.6,1.9-29.5,3.1c0.1,1.2,16.4,0.6,29.7,0.5c3,0,5.5,0.1,7.7,0.2c-12.7,1.1-27.1,2-27,3.1c0.1,1,13,0.6,25.2,0.3
		c-1.2,0.2-2.5,0.3-3.8,0.4c-14,1.4-31.4,2.6-31.3,3.8c0.1,1.2,17.4,0.4,31.5,0c2.2,0,4.1,0,5.9,0c-13.7,1.4-29.9,2.7-29.9,3.9
		c0.1,1.2,17.2,0.2,31.2-0.3c-2.8,0.7-6.2,1.3-10.5,1.8c-12.4,1.4-27.8,2.8-27.7,3.9c0.1,1.1,15.5,0,28-0.5c3-0.1,5.5-0.1,7.7,0
		c-0.8,0.1-1.6,0.2-2.5,0.3c-13.7,1.7-30.7,3.4-30.6,4.6c0.1,1.2,17.1-0.1,30.9-0.9c1.5-0.1,2.9-0.1,4.2-0.1
		c-1.6,0.3-3.3,0.6-5.1,0.8c-12.7,1.7-28.4,3.4-28.3,4.5c0.1,1.1,15.9-0.3,28.7-1.1c0.2,0,0.4,0,0.6,0c-12.3,1.8-27.4,3.5-27.3,4.6
		c0.1,1,14.6-0.3,26.8-1.2c-1.6,0.3-3.4,0.7-5.4,1c-12.2,1.9-27.3,3.7-27.2,4.8c0.1,1.1,15.1-0.5,27.4-1.4c-0.3,0-0.6,0.1-0.9,0.2
		c-14.2,2.3-31.7,4.6-31.6,5.8c0.2,1.3,17.8-0.7,32.1-1.9c3.7-0.3,6.7-0.4,9.4-0.4c-9.6,1.5-18.2,3-18.1,3.8c0.1,0.8,8.5,0,17.9-1
		c-1.3,0.3-2.6,0.5-4,0.8c-14.1,2.5-31.5,5.1-31.4,6.3c0.2,1.2,17.7-1,31.9-2.5c3.8-0.4,7-0.5,9.8-0.6l-0.3,0.1
		c-13.6,2.6-30.5,5.3-30.4,6.4c0.2,1.2,17.2-1.2,31-2.8c1.4-0.2,2.6-0.3,3.8-0.4c-2,0.5-4.3,1.1-6.9,1.6c-13.5,2.7-30.2,5.5-30,6.7
		c0.2,1.2,16.5-1.3,30.1-3c-0.3,0.1-0.7,0.1-1,0.2c-13.1,2.7-29.3,5.6-29.1,6.8c0.2,1.1,16.5-1.5,29.7-3.2c3.2-0.4,6-0.7,8.4-0.8
		c-0.9,0.2-1.8,0.4-2.7,0.6c-12.9,2.8-28.9,5.8-28.7,7c0.2,1,13.6-1.2,26-3c-1.6,0.4-3.3,0.9-5.2,1.3c-13.4,3-30,6.4-29.8,7.5
		c0.2,1.2,16.9-1.8,30.5-3.9c2.4-0.4,4.5-0.6,6.5-0.8c-2,0.6-4.3,1.3-7,1.9c-12.7,3-28.4,6.3-28.2,7.5c0.2,1.1,16-1.9,28.9-4
		c1.7-0.3,3.3-0.5,4.8-0.7c-2.2,0.7-4.6,1.4-7.4,2.1c-13.4,3.4-30,7-29.8,8.2c0.2,1.2,17-2.2,30.6-4.5c2.7-0.5,5-0.8,7.1-1
		c-2,0.7-4.2,1.3-6.7,2C61,500.1,45,503.9,45.2,505c0.3,1.1,16.3-2.3,29.4-4.7c1.5-0.3,2.9-0.5,4.2-0.7c-1.8,0.6-3.8,1.2-6.1,1.9
		c-13.4,3.7-46.5,11.5-46.2,12.8c0.3,1.3,33.4-6.4,47.1-9.1c3.6-0.7,6.7-1.1,9.4-1.4c-0.8,0.2-1.7,0.5-2.5,0.8
		c-12.6,3.6-28.3,7.6-28,8.7c0.3,1.1,16-2.6,28.8-5.3c1.5-0.3,2.9-0.6,4.2-0.8c-12.5,3.6-25.9,7.3-25.6,8.3
		c0.3,1.1,16.1-2.7,29.7-5.7c-2.6,1.1-5.7,2.2-9.5,3.4c-13.4,4.1-30.1,8.7-29.7,9.9c0.3,1.2,17.1-3.1,30.8-6.2
		c2.4-0.5,4.5-1,6.5-1.3c-12.8,4-26.9,8.2-26.6,9.2c0.3,0.9,10.7-1.7,21.9-4.4c-0.7,0.2-1.5,0.5-2.3,0.8
		c-13.1,4.3-29.4,9.2-29.1,10.3c0.3,1.2,16.7-3.4,30.1-6.7c2.1-0.5,4-0.9,5.7-1.3c-1.6,0.7-3.4,1.3-5.4,2
		c-13.1,4.4-29.4,9.5-29,10.7c0.3,1,11.2-2,22.4-5c-12.9,4.5-27.8,9.3-27.4,10.4c0.4,1.2,16.1-3.5,29.5-7.1
		c-12.3,4.4-26.2,9-25.9,10.1c0.4,1.2,16.4-3.8,29.4-7.4c3.2-0.9,6-1.5,8.4-2c-12.6,4.7-28,9.9-27.6,11c0.4,1.1,16.2-4,29.2-7.7
		c0.7-0.2,1.3-0.4,1.9-0.5c-1.4,0.6-2.9,1.2-4.6,1.9c-13,5-29.2,10.7-28.9,11.9c0.4,1.2,16.7-4.3,30.1-8.3c0.9-0.3,1.7-0.5,2.5-0.7
		c-11,4.3-22.6,8.6-22.3,9.5c0.4,1.1,15.6-4.1,28-8c2.6-0.8,4.9-1.4,7-1.9c-1.5,0.7-3.2,1.4-5.1,2.2c-11.5,4.7-25.9,10.1-25.5,11.1
		c0.4,1,14.8-4.1,26.6-8c1.5-0.5,2.8-0.9,4.1-1.2c-0.6,0.2-1.2,0.5-1.8,0.8c-12.3,5.1-27.7,11.1-27.3,12.2
		c0.3,0.9,11.1-2.9,21.9-6.6c-1.7,0.8-3.5,1.7-5.6,2.6c-12.9,5.6-29.1,12-28.7,13.2c0.5,1.2,16.8-5,30.1-9.6c2.4-0.8,4.5-1.5,6.5-2
		c-9.8,4.3-19.2,8.3-18.9,9.1c0.3,0.8,9.5-2.6,19.4-6.2c-2.9,1.8-6.4,3.8-11.2,6c-12.2,5.6-27.5,12.1-27.1,13.3
		c0.5,1.1,15.9-5.1,28.5-9.8c5.1-1.9,9-2.9,12.5-3.8c-10.7,5-22.6,10.3-22.3,11.3c0.4,1,14.5-4.9,26.1-9.4c0.7-0.3,1.4-0.5,2-0.8
		c-2,1.2-4.4,2.5-7.3,3.9c-11.5,5.6-25.9,12.1-25.4,13.2c0.5,1,15-5.2,26.9-10c2.3-0.9,4.4-1.7,6.2-2.3c-2,1.2-4.3,2.5-7,3.9
		c-11.9,6-26.8,13-26.3,14.1c0.5,1.1,15.5-5.6,27.8-10.7c3.9-1.6,7-2.7,9.8-3.5c-0.7,0.3-1.3,0.7-2,1.1
		c-11.5,5.9-25.8,12.9-25.3,13.9c0.5,1,14.9-5.7,26.8-10.8c1.5-0.6,2.8-1.2,4.1-1.7c-2.2,1.5-4.9,3.1-8.2,4.9
		c-11.7,6.3-26.3,13.6-25.8,14.6c0.5,1,14.7-5.7,26.7-11.1c-1.8,1.2-3.8,2.4-6.2,3.7c-10.7,5.9-41.5,21.5-40.9,22.6
		c0.5,1,31.3-14.4,42.5-19.5c3.3-1.5,6-2.5,8.4-3.4c-10.4,5.8-21.3,11.7-20.8,12.6c0.5,1,14.9-6.3,26.6-11.9c1.8-0.9,3.5-1.6,5-2.2
		c-1,0.6-2,1.3-3.2,1.9c-10.8,6.3-24.3,13.6-23.8,14.6c0.5,0.9,13-5.6,23.9-10.9c-2.2,1.7-4.9,3.5-8.3,5.6
		c-11,6.6-24.8,14.4-24.3,15.4c0.6,1,14.5-6.5,26-12.3C117.9,600.9,120.5,599.8,122.8,598.9z"></path>
	<path d="M129.7,607.6c0.1-0.1,0.2-0.1,0.3-0.2C129.7,607.6,129.4,607.7,129.7,607.6z"></path>
	<path d="M75.4,400c0.2,0,0.3,0,0.5,0C75.4,400,75,400,75.4,400z"></path>
	<path d="M77.1,400c-0.4,0-0.8,0-1.2,0C76.4,400,76.9,400,77.1,400z"></path>
	<path d="M70.8,376.7c-11.9-0.2-24.3-0.5-24.3,0.4c-0.1,1.1,16,2,29,3.1c2,0.2,3.8,0.4,5.4,0.6c-1.2,0-2.4,0.1-3.7,0.1
		c-12.5,0-27.9-0.5-27.9,0.6c-0.1,1,14,1.7,26.1,2.6c-2.8,0.3-6,0.5-10,0.6c-12.8,0.1-28.7-0.2-28.7,0.9c0,1.1,15.8,1.7,28.6,2.6
		c3.4,0.2,6.2,0.6,8.6,0.9c-1.7,0.1-3.5,0.2-5.5,0.2c-12.7,0.2-28.4,0.1-28.5,1.2c0,1.1,15.7,1.6,28.4,2.3c3.1,0.2,5.7,0.5,8,0.8
		c-1.2,0.1-2.4,0.1-3.8,0.2c-12.7,0.3-28.5,0.3-28.5,1.4c0,1.1,15.7,1.4,28.4,2c2.6,0.1,4.8,0.3,6.8,0.5c-2.2,0.3-4.8,0.5-7.8,0.6
		c-12.7,0.5-28.5,0.6-28.5,1.7l34,0c0.2,0,0.1,0,0,0c0.3,0,0.6,0,0.8,0l42.9,0c0-0.9-17.6-1.1-30.3-1.6c-2.6-0.1-4.8-0.3-6.8-0.5
		c2.2-0.3,4.8-0.5,7.7-0.6c12.7-0.4,30.3-0.4,30.3-1.3c0-0.9-17.6-1.3-30.3-1.9c-3.1-0.2-5.7-0.4-8-0.7c1.2-0.1,2.4-0.1,3.7-0.2
		c12.7-0.3,30.3-0.1,30.3-1.1c0-0.9-17.6-1.4-30.3-2.2c-3.3-0.2-6-0.5-8.4-0.9c1.7-0.1,3.6-0.2,5.7-0.2c12.8-0.2,30.6,0.1,30.6-0.8
		c0-0.9-17.1-1.6-29.9-2.5c2.7-0.3,5.8-0.5,9.6-0.5c12.5,0,29.7,0.4,29.7-0.5c0-0.9-17.2-1.7-29.6-2.7c-1.6-0.1-3-0.3-4.4-0.4
		c1.5-0.1,3.1-0.1,4.9-0.1c13,0.1,31,0.7,31.1-0.2c0.1-0.9-17.9-2-30.9-3.1c-3.9-0.3-7-0.8-9.7-1.3c10.8,0.2,22,0.6,22-0.1
		c0-0.8-13.7-1.8-25.3-2.9c2.4-0.1,5.1-0.2,8.3-0.1c13.3,0.3,31.5,1.3,31.6,0.3c0-0.9-18.2-2.3-31.4-3.7c-1.9-0.2-3.6-0.4-5.2-0.7
		c2.5-0.1,5.4-0.2,8.9-0.1c6.5,0.2,19.3,1,30.5,1.6c11.2,0.6,20.9,1.1,20.9,0.6c0-0.4-9.6-1.4-20.8-2.5c-11.2-1.1-24-2.2-30.4-3
		c-3.9-0.5-7-1-9.7-1.6c1.1,0,2.2,0.1,3.4,0.1c13.3,0.6,31.7,1.9,31.8,1c0.1-0.9-18.2-2.7-31.4-4.4c-2.9-0.4-5.4-0.8-7.6-1.3
		c2,0,4.3,0,6.9,0.1c12.8,0.7,30.4,2.2,30.5,1.2c0.1-0.9-17.5-2.8-30.2-4.6c-1.1-0.2-2.2-0.3-3.2-0.5c2.2,0,4.7,0,7.6,0.2
		c12.4,0.8,29.4,2.4,29.5,1.5c0.1-0.9-16.9-2.9-29.2-4.7c-4.9-0.7-8.5-1.6-11.6-2.5l0.5,0c13.4,1,31.9,2.9,32.1,1.9
		c0.1-0.8-12.2-2.5-23.9-4.3c3.3-0.1,7.2-0.1,12.3,0.3c13,1.1,31,3.2,31.1,2.3c0.1-0.9-17.8-3.4-30.7-5.5c-2.1-0.3-3.9-0.7-5.6-1.1
		c13.1,1.3,28,3,28.1,2.2c0.1-0.9-15.1-3.2-28.3-5.5c1.6,0.1,3.4,0.2,5.3,0.4c13.3,1.3,31.6,3.8,31.7,2.9c0.1-0.9-18.1-3.7-31.2-6.2
		c-2-0.4-3.8-0.8-5.5-1.2c12.3,1.4,28.9,3.7,29,2.9c0.1-0.9-16.8-3.6-29-6c-2.2-0.4-4.2-0.9-5.9-1.4c2,0.1,4.2,0.3,6.7,0.6
		c12.9,1.5,30.7,4.3,30.8,3.3c0.1-0.9-17.6-4-30.3-6.6c-0.4-0.1-0.8-0.2-1.1-0.2c13.5,1.8,30.3,4.4,30.4,3.5
		c0.2-1-18.8-4.4-32.4-7.4c-1-0.2-2-0.5-2.9-0.7c1.3,0.1,2.7,0.3,4.2,0.5c13.4,1.8,31.8,5,31.9,4c0.1-0.9-18.1-4.5-31.3-7.4
		c-3.2-0.7-5.9-1.5-8.3-2.2c13.4,2,31.5,5.2,31.7,4.3c0.2-0.9-15.8-4.2-28.6-7.2c13.9,2.2,32,5.6,32.2,4.6
		c0.2-0.8-13.3-3.8-25.8-6.8c13.2,2.2,29.2,5.3,29.4,4.4c0.2-1-18.4-5.1-31.8-8.5c-2.1-0.5-3.9-1.1-5.6-1.6c1.7,0.2,3.6,0.5,5.7,0.8
		c13.6,2.4,32.2,6.3,32.4,5.3c0.1-0.7-10-3.3-20.8-6c0.9,0.2,1.9,0.3,3,0.5c14.1,2.6,33.5,6.8,33.7,5.9c0.2-0.9-19-5.6-32.8-9.4
		c-2.5-0.7-4.7-1.4-6.7-2c13,2.6,27.9,5.9,28.1,5.1c0.2-0.9-16.8-5.2-30.1-9c2.9,0.3,6.1,0.8,10.1,1.6c13.9,2.9,32.9,7.4,33.2,6.5
		c0.2-0.9-18.7-5.9-32.3-9.9c-1.9-0.6-3.6-1.1-5.2-1.7c11.1,2.5,22.6,5.2,22.8,4.5c0.3-0.9-17.2-5.6-29.7-9.5
		c-3-0.9-5.5-1.8-7.7-2.7c1.4,0.3,3,0.6,4.6,0.9c13.6,3.1,32.2,7.9,32.5,7c0.3-1-18.2-6.2-31.5-10.5c-2-0.6-3.7-1.3-5.3-1.9
		c1.5,0.3,3.2,0.6,5,1.1c12.9,3.1,30.6,7.9,30.9,7c0.3-0.9-17.3-6.1-30-10.3c-2.2-0.7-4-1.4-5.8-2.1c2.3,0.4,4.9,0.9,7.9,1.7
		c13.4,3.3,31.7,8.6,32,7.6c0.3-0.9-18-6.6-31-11.1c-2.3-0.8-4.3-1.5-6.1-2.3c1.8,0.4,3.8,0.8,6.1,1.4c12.6,3.3,29.9,8.4,30.2,7.5
		c0.3-0.9-16.9-6.4-29.1-10.8c-1.7-0.6-3.2-1.2-4.6-1.8c2.5,0.5,5.2,1.1,8.4,2c13.3,3.6,31.4,9.3,31.7,8.3c0.3-0.9-16.1-6.4-28.8-11
		c1.4,0.3,2.9,0.7,4.6,1.2c6.3,1.8,18.6,5.7,29.2,8.9c10.7,3.3,19.8,6,19.9,5.6c0.1-0.4-8.8-3.7-19.3-7.4
		c-10.5-3.8-22.6-8-28.8-10.3c-3-1.1-5.4-2.2-7.6-3.2c1,0.3,1.9,0.5,3,0.8c12.8,3.8,30.3,9.6,30.6,8.7c0.3-0.8-15.8-6.6-28.1-11.4
		c0.5,0.2,1.1,0.3,1.6,0.5c13.1,4,31.1,10.2,31.4,9.3c0.3-0.9-17.5-7.4-30.2-12.6c-1.1-0.5-2.2-0.9-3.2-1.4c2.1,0.5,4.4,1.2,7.1,2
		c13.2,4.2,31.3,10.7,31.6,9.8c0.3-0.9-17.6-7.7-30.4-13.1c-3.3-1.4-6.1-2.7-8.4-3.9c0.5,0.1,0.9,0.3,1.4,0.4
		c13.6,4.5,32.1,11.4,32.4,10.4c0.3-0.8-13.4-6.3-25.6-11.5c0.6,0.2,1.2,0.4,1.8,0.6c12,4.1,28.4,10.4,28.7,9.6
		c0.3-0.8-15.9-7.4-27.5-12.5c-2.7-1.2-5-2.3-6.9-3.4c12.8,4.6,27.5,10.3,27.9,9.5c0.4-0.9-17.9-8.6-30.9-14.6c-1-0.5-2-0.9-2.9-1.4
		c11,4.1,23.9,9.2,24.2,8.5c0.3-0.8-14.3-7.1-25.4-12.3c1.6,0.5,3.3,1.1,5.3,1.8c11.6,4.4,27.5,11,27.8,10.2
		c0.3-0.8-15.3-7.7-26.4-13.1c0.2,0.1,0.4,0.1,0.6,0.2c12,4.7,28.3,11.6,28.6,10.8c0.4-0.8-15.8-8.1-27.3-13.8
		c-0.6-0.3-1.1-0.6-1.7-0.9c2,0.6,4.1,1.4,6.5,2.4c12.8,5.2,30.3,12.8,30.7,12c0.4-0.9-16.9-8.9-29.2-15.2c-3.3-1.7-5.9-3.2-8.2-4.6
		c11.4,4.8,26.2,11.5,26.5,10.7c0.3-0.7-11.7-6.6-22.2-12c3.2,1,6.8,2.2,11.4,4.2c12.8,5.5,30.3,13.7,30.7,12.9
		c0.4-0.8-16.9-9.4-29.2-16.1c-1.9-1-3.5-1.9-5-2.8c12.8,5.7,29.6,13.9,30.1,13c0.4-0.8-14.9-8.7-26.9-15.3c0.8,0.4,1.7,0.7,2.6,1.1
		c12.1,5.6,28.6,13.8,29,13c0.4-0.8-15.9-9.4-27.5-16c-2.6-1.5-4.8-2.8-6.7-4.1c11.6,5.6,25.7,12.7,26.1,11.9
		c0.4-0.8-13.3-8.2-24.4-14.6c0.8,0.4,1.7,0.8,2.6,1.2c11.7,5.7,27.5,14,27.9,13.2c0.4-0.7-14.4-9-25.4-15.6
		c0.8,0.4,1.7,0.8,2.7,1.3c11.2,5.6,26.5,13.8,26.9,13.1c0.4-0.7-14.6-9.3-25.3-15.8c-1.3-0.8-2.5-1.5-3.6-2.3
		c10.6,5.6,21.2,11.2,21.5,10.5c0.4-0.7-11.6-7.9-22.6-14.7c2.6,1,5.5,2.4,9.1,4.2c11.2,5.9,26.4,14.6,26.8,13.9
		c0.4-0.7-14.6-9.7-25.3-16.6c-3.7-2.4-6.4-4.4-8.7-6.3c0.6,0.3,1.3,0.7,2,1.1c11.2,6.1,26.4,15.1,26.8,14.3l-38.7-23.4
		c0.4,0.2-1-0.6-1.7-1.1c0.4,0.3,0.9,0.5,1.3,0.8L102,175.8c-0.6,1,12.8,9.2,23.4,16.2c3.7,2.4,6.4,4.5,8.8,6.4
		c-0.6-0.3-1.2-0.6-1.9-1c-11.2-6-24.8-13.8-25.3-12.9c-0.4,0.7,6,4.7,13.5,9.4c-3-1.2-6.4-2.6-10.6-4.8
		c-12.7-6.6-28.1-15.1-28.7-14c-0.7,1.2,14.6,10,26.7,17.5c2,1.2,3.7,2.4,5.3,3.5c-6.5-3.3-11.6-5.8-12-5.2
		c-0.5,0.9,11.5,7.7,21.9,13.9c-1-0.5-2.1-1-3.2-1.5c-11.6-5.8-25.7-13.2-26.3-12.2c-0.5,0.9,10.8,7.2,21.1,13.3c-1-0.4-2-0.9-3-1.4
		c-12-5.8-26.5-13.2-27-12.2c-0.5,1.1,13.9,8.8,25.4,15.4c2.6,1.5,4.7,2.8,6.6,4.1c-11.5-5.5-24.4-11.8-24.9-10.9
		c-0.5,0.9,10.9,7,21.6,12.9c-1.1-0.5-2.3-1-3.6-1.5c-12.8-5.8-28.5-13.5-29.1-12.3c-0.6,1.1,14.9,9,27.3,15.8c1.9,1,3.6,2,5.1,2.9
		c-12.6-5.6-27.3-12.5-27.9-11.4c-0.6,1.1,14.9,8.7,27.2,15.3c-2.8-0.8-6-1.9-10-3.6c-11.5-4.9-25.5-11.3-26-10.3
		c-0.5,1,13.4,7.7,24.6,13.4c2.6,1.4,4.8,2.6,6.7,3.8c-0.8-0.3-1.5-0.6-2.3-0.9c-12.8-5.3-28.4-12.2-28.9-11
		c-0.5,1.1,15,8.3,27.3,14.5c1.3,0.7,2.6,1.3,3.7,2c-1.5-0.5-3.1-1.1-4.9-1.8c-11.9-4.7-26.5-11-26.9-9.9c-0.5,1,14,7.5,25.5,13.1
		l0.5,0.3c-11.6-4.5-25.6-10.3-26-9.3c-0.4,1,12.9,6.9,24,12.1c-1.6-0.5-3.3-1.1-5.1-1.8c-11.6-4.3-25.7-10.1-26.1-9
		c-0.4,1,13.5,7,24.6,12.1c-0.3-0.1-0.6-0.2-0.9-0.3c-13.5-4.9-29.9-11.4-30.4-10.2c-0.5,1.2,15.9,8,28.9,13.9
		c3.3,1.5,6.1,2.9,8.4,4.2c-9.1-3.3-17.4-6.2-17.7-5.5c-0.3,0.7,7.4,4.1,16.1,7.8c-1.2-0.4-2.5-0.8-3.9-1.3
		c-13.5-4.6-30.1-10.8-30.5-9.6c-0.4,1.2,16,7.7,29.1,13.2c3.5,1.5,6.4,2.9,8.9,4.2l-0.3-0.1c-13.2-4.3-29.3-10.1-29.7-9
		c-0.4,1.1,15.6,7.2,28.4,12.5c1.3,0.5,2.4,1,3.5,1.5c-2-0.5-4.3-1.1-6.8-1.9c-13.1-4.1-29.1-9.7-29.5-8.5
		c-0.4,1.1,15.1,6.8,27.8,11.8c-0.3-0.1-0.7-0.2-1-0.3c-12.8-3.9-28.4-9.1-28.8-8c-0.4,1.1,15.2,6.6,27.6,11.4
		c3.1,1.2,5.6,2.3,7.8,3.4c-0.9-0.2-1.7-0.5-2.7-0.7c-12.7-3.7-28.2-8.7-28.5-7.6c-0.3,1,12.6,5.5,24.3,9.8
		c-1.6-0.4-3.3-0.8-5.2-1.3c-13.2-3.7-29.4-8.8-29.8-7.6c-0.4,1.2,15.7,6.5,28.6,11.2c2.3,0.8,4.3,1.6,6.1,2.4
		c-2.1-0.4-4.4-0.9-7.1-1.7c-12.6-3.4-28-8-28.4-6.9c-0.4,1.1,15,6,27.3,10.3c1.7,0.6,3.1,1.1,4.5,1.7c-2.2-0.4-4.7-0.9-7.6-1.7
		c-13.4-3.4-29.8-8.1-30.1-6.9c-0.3,1.2,16,6.2,29.1,10.6c2.6,0.9,4.8,1.7,6.8,2.5c-2-0.4-4.3-0.8-6.9-1.4
		c-12.9-3.2-28.7-7.5-29-6.4c-0.3,1.1,15.4,5.8,28.1,9.9c1.5,0.5,2.8,0.9,4.1,1.4c-1.9-0.3-4-0.7-6.3-1.3
		c-13.6-3.2-46.4-12-46.7-10.7c-0.3,1.3,32.4,10.3,45.7,14.4c3.5,1.1,6.4,2.2,8.9,3.2c-0.8-0.2-1.7-0.4-2.6-0.5
		c-12.8-2.8-28.5-6.8-28.8-5.7c-0.3,1.1,15.3,5.3,27.9,9.1c1.5,0.4,2.8,0.9,4,1.3c-12.7-2.8-26.2-5.9-26.5-4.9
		c-0.3,1.1,15.5,5.3,28.9,9.1c-2.8-0.3-6-0.8-9.9-1.5c-13.7-2.8-30.6-6.6-30.9-5.4c-0.3,1.2,16.5,5.4,30,9.1c2.4,0.7,4.5,1.3,6.3,2
		c-13.2-2.6-27.6-5.6-27.8-4.5c-0.2,0.9,10.2,3.6,21.4,6.5c-0.8-0.1-1.5-0.3-2.4-0.4c-13.6-2.5-30.3-6-30.5-4.8
		c-0.2,1.2,16.4,5,29.7,8.5c2.1,0.5,3.9,1.1,5.6,1.6c-1.7-0.2-3.6-0.5-5.7-0.8c-13.6-2.3-30.3-5.6-30.6-4.5
		c-0.2,1,10.8,3.6,22.1,6.3c-13.5-2.2-28.9-5.1-29.1-3.9c-0.2,1.2,15.7,4.6,29.3,7.8c-12.9-2-27.3-4.6-27.6-3.5
		c-0.2,1.2,16.2,4.5,29.4,7.5c3.2,0.7,5.9,1.5,8.3,2.3c-13.3-1.9-29.3-4.7-29.5-3.5c-0.2,1.2,16.2,4.3,29.4,7.2
		c0.7,0.2,1.3,0.3,2,0.5c-1.5-0.1-3.2-0.3-4.9-0.6c-13.8-1.9-30.8-4.6-31-3.4c-0.2,1.2,16.7,4.3,30.4,7.1c0.9,0.2,1.7,0.4,2.5,0.6
		c-11.7-1.5-24-3.3-24.1-2.3c-0.2,1.1,15.6,3.8,28.4,6.4c2.7,0.5,5,1.1,7.1,1.7c-1.7-0.1-3.5-0.3-5.5-0.5
		c-12.3-1.4-27.5-3.6-27.7-2.6c-0.2,1,15,3.5,27.2,5.8c1.5,0.3,2.9,0.6,4.2,0.9c-0.6-0.1-1.3-0.1-1.9-0.2
		c-13.3-1.4-29.6-3.6-29.8-2.5c-0.1,0.9,11.1,2.8,22.4,4.8c-1.9-0.1-3.9-0.2-6.2-0.4c-14-1.4-31.3-3.5-31.4-2.3
		c-0.2,1.2,17.1,3.7,30.9,6.1c2.5,0.4,4.7,0.9,6.7,1.4c-10.7-1-20.8-2-20.9-1.2c-0.1,0.9,9.6,2.4,19.9,4c-3.4,0.1-7.4,0.2-12.7-0.2
		c-13.4-1-30-2.8-30.1-1.6c-0.2,1.2,16.3,3.3,29.6,5.3c5.4,0.8,9.3,1.8,12.7,2.8c-11.7-0.8-24.8-2-24.9-1
		c-0.1,1.1,15.1,2.8,27.4,4.5c0.7,0.1,1.4,0.2,2.1,0.3c-2.4,0.1-5.1,0-8.3-0.1c-12.8-0.7-28.5-2.1-28.6-1
		c-0.1,1.1,15.6,2.8,28.3,4.4c2.5,0.3,4.6,0.7,6.5,1.1c-2.3,0.1-4.9,0.1-8-0.1c-13.3-0.6-29.7-1.9-29.8-0.7
		c-0.1,1.2,16.3,2.7,29.5,4.3c4.1,0.5,7.4,1.1,10.3,1.8c-0.7,0-1.5,0-2.3-0.1c-12.9-0.5-28.8-1.5-28.9-0.4
		c-0.1,1.1,15.8,2.4,28.6,3.9c1.6,0.2,3.1,0.4,4.4,0.6c-2.7,0.2-5.8,0.3-9.5,0.2c-13.2-0.4-29.6-1.3-29.7-0.1
		c-0.1,1.1,15.6,2.3,28.7,3.6c-2.1,0.1-4.5,0.2-7.2,0.1c-12.3-0.2-46.7-2.1-46.7-0.9c-0.1,1.1,34.4,3.2,46.6,4.3
		C65.4,375.8,68.3,376.2,70.8,376.7z"></path>
	<path d="M131.3,164.1c2.8,2.2,5,4.2,6.9,5.9c-9.9-6.5-20.2-13.5-20.7-12.7c-0.7,1,12.4,10.3,22.8,18.2c1.6,1.2,3,2.3,4.3,3.4
		c-1-0.6-2-1.2-3.2-1.9c-10.5-6.7-23.3-15.3-23.9-14.4c-0.6,0.9,10.9,8.9,20.7,16.1c-2.5-1.2-5.4-2.7-8.8-4.8
		c-10.9-6.7-24.2-15.4-24.9-14.4c-0.7,1,12.5,9.9,22.9,17.3c2.7,2,4.9,3.7,6.8,5.3c-1.5-0.8-3.1-1.6-4.8-2.7
		c-10.9-6.5-24.3-14.9-24.9-13.9c-0.6,1,12.5,9.6,23,16.9c2.5,1.8,4.6,3.4,6.4,4.8c-1-0.5-2.1-1.2-3.3-1.8
		c-11-6.4-24.4-14.6-25-13.6c-0.6,1,12.7,9.4,23.2,16.5c2.1,1.4,3.9,2.8,5.5,4c-2-0.9-4.3-2.1-6.9-3.5
		c-11.1-6.2-24.7-14.2-25.3-13.3l29.1,17.6c0.1,0.1,0.1,0.1,0,0c0.2,0.1,0.5,0.3,0.7,0.4l36.7,22.2c0.5-0.7-14.5-10-25.1-17.1
		c-2.1-1.4-4-2.7-5.6-4c2,0.9,4.3,2.1,6.9,3.6c11.1,6.3,26.1,15.4,26.6,14.7c0.5-0.7-14.4-10.2-24.9-17.4c-2.6-1.8-4.6-3.3-6.4-4.8
		c1,0.6,2.1,1.2,3.3,1.8c11,6.4,25.9,15.7,26.3,15c0.5-0.8-14.2-10.4-24.6-17.8c-2.7-1.9-4.8-3.6-6.7-5.2c1.5,0.8,3.2,1.7,5,2.8
		c11,6.6,25.9,16.3,26.4,15.5c0.5-0.7-13.7-10.4-24-17.9c2.4,1.2,5.1,2.6,8.4,4.7c10.6,6.6,24.9,16.2,25.4,15.5
		c0.5-0.7-13.6-10.6-23.6-18.1c-1.3-0.9-2.4-1.8-3.5-2.7c1.3,0.7,2.7,1.6,4.2,2.5c11,7,25.8,17.2,26.3,16.5
		c0.5-0.7-14.1-11.3-24.4-19.2c-3.1-2.4-5.5-4.5-7.4-6.3c9,6,18.2,12.4,18.6,11.8c0.5-0.6-10.5-8.9-19.7-16.1c2.1,1.2,4.4,2.6,7,4.4
		c11,7.5,25.8,18.2,26.3,17.5c0.5-0.7-14-11.8-24.3-20.2c-1.5-1.2-2.8-2.4-4-3.4c2.2,1.3,4.6,2.8,7.5,4.8
		c5.3,3.7,15.6,11.4,24.7,18.1c4.5,3.3,8.8,6.4,11.9,8.6c3.1,2.2,5.1,3.6,5.2,3.4c0.1-0.2-1.7-1.8-4.6-4.2c-3-2.4-7-5.7-11.4-9.3
		c-8.8-7.1-18.8-15.1-23.8-19.3c-3-2.5-5.3-4.7-7.2-6.7c0.9,0.6,1.8,1.3,2.8,1.9c10.8,7.8,25.3,19.1,25.9,18.4
		c0.6-0.7-13.7-12.3-23.7-21.1c-2.2-1.9-4-3.7-5.6-5.3c1.7,1.1,3.6,2.4,5.7,4c10.2,7.7,24,18.8,24.6,18.1c0.5-0.7-13-12.1-22.5-20.6
		c-0.8-0.8-1.6-1.5-2.3-2.2c1.9,1.2,3.9,2.6,6.2,4.4c9.8,7.6,22.9,18.5,23.5,17.9c0.5-0.6-12.4-11.9-21.5-20.3
		c-3.6-3.4-6.1-6.1-8.2-8.6l0.4,0.3c10.5,8.4,24.6,20.5,25.3,19.9c0.5-0.6-8.6-9-17.2-17.1c2.8,1.8,6,4,9.9,7.3
		c10,8.4,23.5,20.4,24.1,19.8c0.5-0.6-12.7-12.9-22-22.2c-1.5-1.5-2.8-2.8-3.9-4.1c10,8.7,21.1,18.7,21.6,18.1
		c0.6-0.6-10.5-11.4-19.9-20.8c1.3,1,2.6,2.1,4.1,3.4c10,8.9,23.4,21.5,24,20.9c0.6-0.6-12.5-13.6-21.7-23.2
		c-1.4-1.5-2.7-2.9-3.8-4.2c9.1,8.4,21.1,20,21.7,19.5c0.6-0.6-11.4-12.8-19.8-22c-1.5-1.7-2.8-3.2-4-4.6c1.5,1.3,3.2,2.7,5.1,4.5
		c9.5,8.9,22.1,21.7,22.7,21.1c0.6-0.6-11.8-13.6-20.4-23.4c-0.3-0.3-0.5-0.6-0.8-0.9c9.7,9.5,21.5,21.7,22.2,21.1
		c0.7-0.6-12.4-14.8-21.4-25.3c-0.7-0.8-1.3-1.6-1.9-2.3c1,0.9,2,1.9,3,2.9c9.5,9.6,22.3,23.2,22.9,22.6
		c0.6-0.6-11.7-14.5-20.4-24.9c-2.1-2.5-3.8-4.8-5.2-6.8c9.4,9.7,21.7,23.4,22.3,22.8c0.6-0.6-9.9-13-18.2-23.3
		c9.6,10.3,21.7,24.2,22.4,23.6c0.6-0.5-8.1-11.2-16-21.3c8.9,10,19.5,22.4,20.1,21.9c0.7-0.6-11.3-15.4-19.6-26.5
		c-1.3-1.7-2.4-3.3-3.4-4.8c1.2,1.3,2.5,2.6,3.9,4.2c9.1,10.4,21.1,25.2,21.8,24.6c0.5-0.4-5.8-8.8-12.4-17.7c0.6,0.7,1.3,1.5,2,2.3
		c9.2,11,21.4,26.5,22.1,26c0.6-0.5-11.2-16.3-19.4-28.1c-1.5-2.1-2.7-4.1-3.8-5.8c8.3,10.3,17.5,22.5,18.2,22
		c0.7-0.5-9.5-14.8-17.2-26.2c2,2.1,4.2,4.6,6.6,7.8c8.7,11.2,20.2,27.1,20.8,26.6c0.7-0.5-10.4-16.6-18.1-28.6
		c-1.1-1.7-2-3.2-2.9-4.7c6.7,9.2,13.6,18.8,14.1,18.4c0.7-0.5-9.3-15.5-16.1-26.7c-1.6-2.7-2.9-5-4-7.1c0.9,1.1,1.8,2.4,2.8,3.8
		c8.1,11.3,18.8,27.4,19.5,26.9c0.7-0.5-9.5-16.8-16.5-28.8c-1-1.8-1.9-3.4-2.7-5c1,1.2,2,2.6,3,4.2c7.5,11,17.3,26.5,18.1,26
		c0.7-0.5-8.7-16.2-15.2-27.8c-1.1-2-2-3.8-2.8-5.5c1.4,1.9,3,4,4.6,6.6c7.5,11.5,17.4,27.9,18.1,27.5c0.8-0.4-8.7-17-15.1-29.2
		c-1.1-2.1-2-4.1-2.8-5.8c1.1,1.5,2.2,3.2,3.4,5.2c6.9,11.1,15.8,26.7,16.5,26.3c0.7-0.4-7.8-16.2-13.6-27.9
		c-0.8-1.6-1.5-3.1-2.1-4.5c1.4,2,3,4.4,4.7,7.3c6.9,11.8,16,28.5,16.7,28.1c0.7-0.4-7.1-15.8-12.9-28.1c0.8,1.2,1.6,2.6,2.4,4.1
		c3.2,5.8,9.2,17.1,14.4,27c2.6,4.9,5,9.5,6.8,12.8c1.8,3.3,3,5.4,3.1,5.3c0.1-0.1-0.8-2.3-2.4-5.7c-1.6-3.4-3.8-8.1-6.1-13.2
		c-4.8-10.1-10.3-21.7-12.9-27.7c-1.3-2.9-2.3-5.4-3-7.7c0.5,0.9,1,1.8,1.5,2.7c6.2,11.8,14.3,28.4,15,28c0.7-0.3-6.4-16-11.5-28.2
		c0.3,0.5,0.5,1,0.8,1.5c6.2,12.3,14.1,29.5,14.8,29.1c0.7-0.3-6.8-17.8-11.8-30.5c-0.4-1.2-0.8-2.2-1.2-3.3c1.1,1.9,2.2,4,3.4,6.5
		c5.9,12.6,13.5,30.2,14.2,29.9c0.7-0.3-6.4-18.1-11.2-31.1c-1.2-3.4-2.1-6.3-2.8-8.9c0.2,0.4,0.4,0.9,0.6,1.3
		c5.8,13.1,13.2,31.4,13.9,31.1c0.7-0.3-4.4-14.1-8.7-26.6c0.2,0.6,0.5,1.2,0.8,1.8c4.9,11.7,11.1,28.1,11.7,27.8
		c0.7-0.3-5.1-16.7-8.9-28.8c-0.9-2.8-1.5-5.3-2-7.4c4.9,12.7,10.3,27.6,11,27.3c0.8-0.3-5.3-19.1-9.2-32.9
		c-0.3-1.1-0.6-2.1-0.8-3.1c4,11.1,8.4,24.2,9.1,24c0.7-0.2-3.8-15.5-7-27.3c0.6,1.5,1.3,3.3,2,5.2c4.1,11.7,9.1,28.2,9.8,27.9
		c0.7-0.3-3.9-16.6-6.8-28.7c0.1,0.2,0.1,0.4,0.2,0.6c4,12.2,8.8,29.2,9.6,29.1c0.8-0.2-3.7-17.3-6.4-29.8c-0.1-0.6-0.3-1.3-0.4-1.9
		c0.7,1.9,1.4,4.1,2.2,6.6c3.9,13.2,8.7,31.7,9.5,31.5c0.8-0.2-3.6-18.8-6.2-32.4c-0.7-3.6-1.1-6.6-1.4-9.3
		c3.2,11.9,6.9,27.7,7.7,27.5c0.7-0.2-1.9-13.3-4-24.9c1.2,3.1,2.3,6.8,3.5,11.7c3.3,13.6,7.1,32.5,7.9,32.4
		c0.7-0.1-2.6-19.1-4.6-33c-0.3-2.1-0.5-4-0.7-5.7c2.9,13.7,6.2,32.1,7,32c0.7-0.1-1.8-17.1-3.5-30.8c0.2,0.9,0.4,1.8,0.6,2.7
		c2.5,13.1,5.3,31.3,6,31.1c0.7-0.1-1.6-18.3-2.9-31.6c-0.3-3-0.4-5.5-0.5-7.8c2.1,12.7,4.2,28.4,4.9,28.3
		c0.7-0.1-0.8-15.6-1.8-28.3c0.1,0.9,0.3,1.8,0.5,2.8c1.8,12.8,3.8,30.6,4.5,30.5c0.7-0.1-0.7-17-1.3-29.8c0.1,0.9,0.3,1.9,0.4,2.9
		c1.5,12.4,3,29.7,3.7,29.6c0.7-0.1-0.4-17.3-0.7-29.8c0-1.5-0.1-2.9,0-4.2c1.1,12,2,23.9,2.7,23.9c0.7,0,0.3-14,0.1-26.9
		c0.5,2.8,0.9,5.9,1.2,10c0.9,12.7,1.6,30.2,2.3,30.2c0.7,0,0.4-17.6,0.6-30.3c0.1-4.4,0.4-7.8,0.8-10.8c0,0.7,0.1,1.5,0.1,2.2
		c0.6,12.7,0.8,30.3,1.6,30.3l0-45.2c0,0.4,0-1.2,0-2c0,0.5,0,1,0,1.5l0-32c-1.3,0-1.4,15.8-1.8,28.5c-0.1,4.4-0.5,7.9-0.9,10.8
		c0-0.7-0.1-1.4-0.1-2.1c-0.7-12.7-1.3-28.3-2.5-28.3c-0.8,0-0.9,7.6-0.9,16.4c-0.6-3.2-1.2-6.8-1.6-11.5
		c-1.2-14.2-2.3-31.8-3.9-31.8c-1.5,0.1-0.7,17.7-0.5,31.9c0,2.3,0,4.4-0.1,6.3c-0.8-7.3-1.5-12.9-2.2-12.9
		c-1.1,0.1-0.2,13.9,0.3,26c-0.2-1.1-0.3-2.3-0.5-3.5c-1.6-12.8-3.3-28.7-4.6-28.6c-1.1,0.1-0.1,13,0.7,25c-0.2-1-0.4-2.1-0.5-3.3
		c-2-13.1-4-29.4-5.4-29.2c-1.3,0.1,0.4,16.4,1.6,29.6c0.2,2.9,0.3,5.5,0.4,7.7c-2.1-12.6-4.4-26.8-5.6-26.7
		c-1.1,0.2,0.5,13,1.9,25.2c-0.3-1.2-0.5-2.4-0.8-3.8c-2.7-13.8-5.7-31-7.1-30.7c-1.4,0.2,1.3,17.4,3.2,31.4
		c0.3,2.1,0.5,4.1,0.6,5.9c-3-13.4-6.2-29.4-7.5-29.2c-1.4,0.2,1.8,17.2,4,31c-1-2.8-2.1-6-3.2-10.2c-3.1-12.1-6.5-27.2-7.8-26.9
		c-1.2,0.3,2,15.4,4.2,27.7c0.5,2.9,0.9,5.4,1.1,7.6c-0.2-0.8-0.5-1.6-0.7-2.4c-3.7-13.3-7.9-29.8-9.3-29.5
		c-1.3,0.3,2.6,16.9,5.5,30.4c0.3,1.5,0.6,2.9,0.8,4.1c-0.5-1.5-1.1-3.1-1.7-4.9c-3.8-12.3-8-27.5-9.3-27.2
		c-1.2,0.3,2.8,15.6,5.7,28.1c0,0.2,0.1,0.4,0.1,0.6c-3.9-11.8-8.3-26.4-9.5-26c-1.1,0.4,2.8,14.4,5.9,26.3c-0.6-1.5-1.3-3.2-2-5.1
		c-4.1-11.6-8.8-26.1-10-25.7c-1.2,0.4,3.2,14.8,6.6,26.7c-0.1-0.3-0.2-0.6-0.3-0.9c-5.1-13.4-10.9-30.2-12.3-29.7
		c-1.4,0.5,4.1,17.3,8.3,31c1.1,3.5,1.8,6.5,2.3,9.1c-3.6-9-6.9-17.2-7.7-16.9c-0.8,0.3,1.8,8.3,4.8,17.3c-0.5-1.2-1.1-2.4-1.7-3.8
		c-5.6-13.1-12.1-29.5-13.4-29c-1.3,0.5,4.9,17,9.6,30.5c1.3,3.6,2.2,6.7,2.9,9.4l-0.1-0.2c-5.7-12.6-12.4-28.4-13.7-27.9
		c-1.2,0.5,5.2,16.4,10.2,29.3c0.5,1.3,0.9,2.5,1.3,3.6c-1-1.8-2.1-3.9-3.3-6.3c-6-12.4-13-27.8-14.2-27.2
		c-1.2,0.6,5.4,15.7,10.6,28.3c-0.2-0.3-0.3-0.6-0.5-0.9c-6.1-11.9-13.2-26.7-14.4-26.2c-1.2,0.6,5.7,15.5,11,27.8
		c1.3,3,2.3,5.6,3,7.9c-0.4-0.8-0.9-1.6-1.4-2.4c-6.3-11.6-13.7-26.2-14.8-25.6c-1,0.5,4.9,12.8,10.1,24.1c-0.9-1.4-1.8-2.9-2.8-4.6
		c-6.8-12-14.8-26.9-16-26.3c-1.2,0.6,6.6,15.7,12.6,28.1c1.1,2.2,1.9,4.2,2.7,6c-1.2-1.8-2.5-3.8-4-6.1
		c-6.7-11.2-14.6-25.2-15.7-24.6c-1.1,0.6,6.6,14.7,12.5,26.3c0.8,1.6,1.5,3,2.1,4.3c-1.3-1.8-2.8-3.9-4.4-6.4
		c-7.4-11.7-16.1-26.3-17.3-25.7c-1.2,0.7,7.3,15.4,13.9,27.6c1.3,2.4,2.3,4.5,3.2,6.5c-1.3-1.6-2.6-3.5-4.1-5.7
		c-7.4-11.1-16.1-24.9-17.2-24.2c-1.1,0.7,7.4,14.7,14,26.3c0.8,1.3,1.4,2.6,2.1,3.8c-1.2-1.5-2.5-3.2-3.8-5.2
		c-8-11.4-26.4-39.9-27.7-39.1c-1.3,0.8,17.2,29.4,24.3,41.3c1.9,3.2,3.3,5.9,4.5,8.3c-0.5-0.7-1-1.4-1.6-2.1
		c-7.7-10.6-16.9-23.9-18-23.2c-1,0.7,8,14.2,15,25.3c0.8,1.3,1.5,2.5,2.2,3.6c-7.8-10.5-16-21.6-16.9-20.9
		c-1,0.7,8.2,14.2,15.9,25.8c-2-2.1-4.1-4.5-6.6-7.6c-8.7-11-19.1-24.8-20.2-24c-1.1,0.8,9,14.8,17,26.3c1.4,2,2.6,3.9,3.6,5.6
		c-8.5-10.4-17.6-22-18.6-21.2c-0.8,0.6,5.5,9.4,12.3,18.7c-0.5-0.6-1-1.2-1.6-1.8c-8.9-10.5-19.6-23.8-20.7-22.9
		c-1,0.8,9.4,14.3,17.6,25.4c1.3,1.7,2.4,3.3,3.3,4.8c-1.2-1.3-2.5-2.6-3.9-4.2c-9.2-10.3-20.1-23.4-21.2-22.6
		c-0.8,0.7,6.1,9.6,13.3,18.8c-9.2-10.1-19.5-21.9-20.5-21.1c-1,0.9,9.4,13.5,18.1,24.3c-8.9-9.5-18.7-20.4-19.7-19.6
		c-1,0.9,9.9,13.6,18.5,24.1c2.1,2.6,3.8,4.8,5.2,6.9c-9.3-9.6-20.4-21.5-21.3-20.7c-0.9,0.9,10.2,13.3,18.9,23.6
		c0.4,0.5,0.9,1,1.3,1.5c-1.1-1-2.3-2.2-3.6-3.4c-9.9-9.8-21.8-22.2-22.8-21.4c-1,0.9,10.7,13.5,19.9,24c0.6,0.7,1.1,1.3,1.7,2
		c-8.5-8.2-17.2-16.9-18-16.2c-0.8,0.8,10.2,12.5,19,22.1c1.8,2,3.4,3.9,4.7,5.5c-1.3-1.1-2.6-2.3-4.1-3.7
		c-9.1-8.5-20-19.2-20.8-18.4c-0.8,0.8,10,11.7,18.5,20.8c1,1.1,2,2.2,2.8,3.2c-0.5-0.4-0.9-0.8-1.4-1.3c-9.9-9-21.8-20.3-22.7-19.5
		c-0.7,0.7,7.3,8.8,15.3,17c-1.5-1.2-3.1-2.5-4.8-4c-10.6-9.3-23.4-21.1-24.3-20.1c-0.9,1,11.7,13,21.6,23c1.8,1.8,3.3,3.4,4.6,5
		c-8.1-7-15.8-13.7-16.5-13c-0.6,0.7,6.4,7.5,14,14.7c-2.9-1.9-6.2-4.1-10.3-7.4c-10.4-8.5-23-19.4-23.9-18.4
		c-0.9,1,11.5,12.1,21.3,21.3c4,3.8,6.6,6.8,8.9,9.5c-9.2-7.3-19.3-15.7-20-14.9c-0.7,0.9,10.9,10.9,20,19.2c0.5,0.5,1.1,1,1.6,1.5
		c-2-1.3-4.2-2.8-6.8-4.8c-10.2-7.8-22.4-17.7-23.2-16.8c-0.7,0.9,11.4,11.1,20.9,19.5c1.9,1.7,3.4,3.2,4.8,4.6
		c-2-1.2-4.1-2.7-6.6-4.5c-10.7-7.9-23.7-18.1-24.4-17.1c-0.8,1,12,11.3,22.1,20c3.2,2.7,5.6,5,7.6,7.2c-0.6-0.4-1.2-0.9-1.9-1.3
		c-10.5-7.5-23.2-17.1-23.9-16.2c-0.7,0.9,11.9,10.8,21.8,19c1.2,1,2.4,2,3.4,2.9c-2.3-1.3-5-2.9-8.1-5.1
		c-10.9-7.5-24.1-17.2-24.8-16.3c-0.7,0.9,11.8,10.5,22,18.7c-1.8-1-3.8-2.3-6.1-3.8c-10.2-6.8-38.1-27-38.9-26
		C93.7,136.3,121.6,156.6,131.3,164.1z"></path>
	<path d="M131.2,193.3c-0.3-0.2-0.7-0.4-1-0.6C130.6,193,131,193.2,131.2,193.3z"></path>
	<path d="M129.7,192.5c0.2,0.1,0.3,0.2,0.5,0.3C129.7,192.5,129.4,192.3,129.7,192.5z"></path>
	<path d="M305.9,123.6c0.7,0,1-17.6,1.6-30.3c0.1-2.6,0.3-4.8,0.6-6.8c0.2,2.2,0.4,4.8,0.5,7.8c0.2,12.7,0,30.3,0.7,30.4
		c0.7,0,1.5-17.6,2.4-30.2c0.2-3.1,0.6-5.7,0.9-8c0,1.2,0.1,2.4,0.1,3.7c-0.1,12.7-0.8,30.3,0,30.3c0.8,0,1.9-17.5,3.2-30.2
		c0.3-3.3,0.8-6,1.2-8.4c0.1,1.7,0.1,3.6,0,5.7c-0.4,12.8-1.6,30.5-0.8,30.6c0.8,0.1,2.4-17,4-29.7c0.1,2.7,0.1,5.8-0.1,9.6
		c-0.8,12.5-2.4,29.6-1.7,29.7c0.7,0.1,2.7-17,4.6-29.4c0.2-1.6,0.5-3,0.8-4.3c-0.1,1.5-0.1,3.1-0.3,4.9c-1.1,13-3.2,30.9-2.5,30.9
		c0.7,0.1,3.3-17.8,5.6-30.6c0.7-3.9,1.4-6.9,2.2-9.5c-1.3,10.7-2.7,21.9-2.1,22c0.7,0.1,3.1-13.4,5.4-24.9
		c-0.1,2.4-0.3,5.1-0.7,8.3c-1.7,13.2-4.7,31.2-4,31.4c0.8,0.1,4.2-17.9,7.2-30.8c0.4-1.9,0.9-3.6,1.3-5.1c-0.2,2.5-0.5,5.4-1,8.8
		c-1,6.4-3.4,19-5.5,30.1c-1,5.5-2,10.7-2.6,14.4c-0.7,3.8-1,6.1-0.9,6.2c0.2,0,0.8-2.3,1.7-6c0.9-3.7,2.1-8.8,3.4-14.3
		c2.5-11,5.4-23.5,7-29.7c1-3.8,2-6.8,2.9-9.3c-0.2,1-0.4,2.1-0.6,3.3c-2.4,13.1-6.5,31.1-5.7,31.3c0.8,0.2,5.2-17.7,8.9-30.5
		c0.8-2.8,1.6-5.2,2.4-7.3c-0.3,2-0.7,4.3-1.2,6.8c-2.7,12.5-7,29.6-6.3,29.8c0.8,0.2,5.5-16.8,9.4-29c0.4-1.1,0.7-2.1,1-3
		c-0.3,2.2-0.8,4.6-1.5,7.5c-2.9,12-7.5,28.5-6.8,28.7c0.7,0.2,5.7-16.1,9.7-27.8c1.6-4.7,3.1-8.1,4.6-10.9l-0.1,0.4
		c-3.5,13-8.9,30.8-8.1,31.1c0.7,0.2,4.7-11.5,8.8-22.7c-0.6,3.3-1.3,7-2.8,11.9c-3.8,12.5-9.5,29.6-8.8,29.9
		c0.7,0.2,6.9-16.8,11.8-28.9c0.8-1.9,1.5-3.6,2.2-5.2c-4.1,12.5-9.2,26.7-8.5,27c0.7,0.3,6.4-14,11.5-26.3c-0.5,1.6-1,3.2-1.6,5.1
		c-4.4,12.6-11,29.8-10.3,30.1c0.7,0.3,7.7-16.8,13.3-28.9c0.9-1.9,1.7-3.6,2.5-5.1c-4.3,11.6-10.7,27.1-10,27.4
		c0.7,0.3,7.6-15.4,13-26.7c1-2,1.9-3.8,2.8-5.4c-0.6,1.9-1.4,4-2.3,6.4c-4.8,12.1-12,28.6-11.3,28.9c0.7,0.3,8.3-15.9,14.2-27.5
		c0.2-0.3,0.4-0.7,0.5-1c-5.3,12.5-12.4,28-11.7,28.3c0.8,0.4,9.2-16.9,15.8-29.2c0.5-0.9,1-1.8,1.4-2.6c-0.5,1.2-1,2.5-1.6,3.9
		c-5.5,12.3-13.7,29.1-12.9,29.4c0.7,0.3,9.3-16.2,16-28c1.6-2.9,3.1-5.2,4.5-7.3c-5.8,12.2-14.2,28.6-13.4,29
		c0.7,0.4,8.6-13.9,15.3-25.2c-6.3,12.6-15,28.9-14.2,29.3c0.7,0.4,7.6-11.6,14.3-22.5c-6.2,11.8-14.1,26.1-13.4,26.4
		c0.7,0.4,10.5-16,18-27.6c1.2-1.8,2.3-3.4,3.3-4.9c-0.7,1.6-1.6,3.3-2.6,5.1c-6.6,12.1-16.3,28.5-15.6,29
		c0.5,0.3,6.2-8.5,12.3-17.7c-0.5,0.8-0.9,1.7-1.5,2.6c-7.1,12.5-17.5,29.3-16.8,29.7c0.7,0.4,11.5-16.2,19.7-27.9
		c1.5-2.1,2.9-4,4.2-5.6c-6.9,11.3-15,24.2-14.4,24.6c0.7,0.4,10.6-14.1,18.7-25.3c-1.3,2.6-2.9,5.5-5.1,8.9
		c-7.6,12-18.5,28.3-17.9,28.7c0.7,0.5,12-15.5,20.6-26.8c1.2-1.6,2.3-3,3.4-4.3c-6.3,9.5-13,19.2-12.4,19.6
		c0.7,0.5,11.4-14.1,19.6-24.3c1.9-2.5,3.7-4.5,5.3-6.2c-0.8,1.2-1.6,2.5-2.6,3.9c-7.8,11.5-19.2,27.1-18.5,27.6
		c0.7,0.5,12.5-14.7,21.4-25.5c1.3-1.6,2.6-3,3.7-4.3c-0.8,1.3-1.8,2.7-2.9,4.3c-7.7,10.8-18.8,25.4-18.2,26
		c0.7,0.5,12.2-13.8,20.8-23.8c1.5-1.7,2.8-3.2,4.1-4.5c-1.2,2-2.7,4.2-4.6,6.6c-8.2,11.1-20.1,26-19.4,26.6
		c0.7,0.6,12.9-14.1,22.2-24.3c1.6-1.8,3.1-3.3,4.5-4.7c-1,1.5-2.2,3.2-3.7,5c-8,10.3-19.5,24.1-18.8,24.7
		c0.7,0.5,12.5-13,21.4-22.5c1.2-1.3,2.4-2.5,3.5-3.6c-1.4,2.1-3.1,4.4-5.1,6.9c-8.6,10.7-21,25.1-20.4,25.7
		c0.6,0.6,12.3-12.2,21.6-22c-0.9,1.2-1.9,2.4-2.9,3.7c-4.2,5.1-12.7,14.7-20.1,23.1c-3.7,4.2-7,8.1-9.5,11
		c-2.4,2.9-3.9,4.7-3.8,4.9c0.1,0.1,1.9-1.5,4.5-4.2c2.6-2.7,6.2-6.4,10.1-10.5c7.7-8.1,16.5-17.4,21.2-22c2.2-2.2,4.2-4.1,6.1-5.6
		c-0.6,0.8-1.3,1.5-2,2.4c-8.7,10.1-21.3,23.6-20.6,24.2c0.6,0.6,12.6-11.7,22-20.9c-0.4,0.4-0.7,0.8-1.1,1.3
		c-9.2,10.2-22.2,24-21.6,24.6c0.6,0.6,14-12.8,24-22.2c0.9-0.8,1.8-1.6,2.6-2.3c-1.4,1.7-2.9,3.5-4.8,5.5
		c-9.4,10.2-22.9,23.8-22.3,24.4c0.6,0.6,14.4-12.7,24.7-22c2.7-2.4,5-4.3,7.2-5.9c-0.3,0.3-0.7,0.7-1,1
		c-9.9,10.3-24,24.1-23.4,24.7c0.5,0.6,11.4-9.4,21.3-18.1c-0.4,0.4-0.9,0.9-1.3,1.4c-8.9,9-21.6,21.1-21.1,21.7
		c0.5,0.6,13.5-11.2,23.2-19.4c2.3-1.9,4.3-3.5,6.1-4.8c-9.8,9.5-21.3,20.2-20.7,20.9c0.6,0.7,15.5-12.4,26.6-21.5
		c0.9-0.7,1.7-1.4,2.5-2c-8.6,8.1-18.8,17.4-18.3,17.9c0.6,0.6,12.7-9.7,22.3-17.4c-1.2,1.2-2.5,2.5-4,3.9
		c-9.1,8.5-22.1,19.8-21.5,20.4c0.5,0.7,13.6-10.2,23.4-17.9l-0.4,0.4c-9.5,8.6-23,20.1-22.4,20.8c0.6,0.7,14.3-10.5,24.5-18.2
		c0.5-0.4,1-0.8,1.5-1.1c-1.5,1.5-3.1,3-5.1,4.7c-10.4,9.1-25.1,21.3-24.5,22c0.6,0.7,15.6-11.1,26.7-19.3c3-2.2,5.5-3.8,7.8-5.2
		c-9.4,8-22,18.1-21.5,18.8c0.5,0.6,11.2-7.4,20.7-14.3c-2.3,2.4-5.1,5.1-8.9,8.3c-10.8,8.9-26.1,20.7-25.5,21.4
		c0.5,0.7,16.1-10.7,27.6-18.7c1.7-1.2,3.3-2.2,4.8-3.1c-10.9,8.8-25.9,20-25.3,20.7c0.5,0.7,14.5-9.3,26-16.9
		c-0.7,0.6-1.4,1.1-2.2,1.7c-10.5,8.2-25.4,19.1-24.8,19.8c0.5,0.7,15.6-9.8,26.8-17.1c2.5-1.6,4.7-2.9,6.7-4
		c-10.3,7.8-23.1,17-22.7,17.7c0.5,0.7,13.4-8,24.2-14.9c-0.7,0.6-1.5,1.1-2.3,1.8c-10.4,7.7-25.1,17.9-24.6,18.6
		c0.5,0.7,14.6-8.6,25.6-15.4c-0.8,0.6-1.5,1.1-2.4,1.8c-10.2,7.3-24.5,17-24,17.7c0.5,0.7,15-8.7,25.8-15.1
		c1.3-0.8,2.5-1.5,3.7-2.1c-9.9,6.8-19.7,13.5-19.3,14.2c0.4,0.7,12.3-6.6,23.4-13.2c-2.1,1.8-4.7,3.8-8,6.1
		c-10.5,7.2-25.2,16.6-24.8,17.3c0.4,0.7,15.4-8.4,26.5-14.7c3.8-2.2,6.9-3.6,9.7-4.8c-0.6,0.4-1.2,0.8-1.9,1.3
		c-10.6,7.1-25.6,16.3-25.1,17.1l38.7-23.4c-0.3,0.2,1-0.6,1.7-1c-0.4,0.3-0.9,0.5-1.3,0.7l27.4-16.6c-0.6-1-14.1,7.1-25.3,13.3
		c-3.9,2.2-7,3.6-9.8,4.8c0.6-0.4,1.1-0.8,1.7-1.2c10.5-7.1,23.7-15.5,23.2-16.4c-0.4-0.6-6.9,3.1-14.6,7.5c2.4-2.1,5.3-4.4,9.2-7.1
		c11.7-8.2,26.5-17.8,25.7-19c-0.7-1.1-15.6,8.3-27.9,15.6c-2,1.2-3.8,2.2-5.5,3.1c5.9-4.2,10.5-7.6,10.2-8.2
		c-0.6-0.9-12.2,6.6-22.5,12.9c0.9-0.7,1.8-1.4,2.8-2.1c10.5-7.6,23.6-16.7,23-17.7c-0.6-0.9-11.4,6.2-21.6,12.6
		c0.8-0.6,1.7-1.3,2.6-2c10.6-7.9,24-17.4,23.3-18.4c-0.7-1-14.2,8.2-25.4,15.4c-2.5,1.6-4.7,2.9-6.7,3.9
		c10.2-7.7,21.8-16.3,21.1-17.2c-0.6-0.8-11.3,6.5-21.4,13.3c0.9-0.8,1.9-1.6,3-2.4c11.1-8.7,25-19.1,24.2-20.2
		c-0.8-1-14.9,9.1-26.6,17.1c-1.8,1.2-3.4,2.3-5,3.2c10.7-8.6,23.6-18.6,22.9-19.6c-0.8-1-14.6,9.2-26,17.3c2-2.1,4.5-4.5,7.8-7.3
		c9.6-8,21.6-17.6,21-18.6c-0.7-0.9-13,8.5-23.1,15.8c-2.4,1.7-4.5,3.1-6.4,4.3c0.6-0.5,1.2-1.1,1.9-1.7c10.4-9,23.6-19.8,22.8-20.8
		c-0.8-1-14.2,9.6-25.2,17.9c-1.2,0.9-2.3,1.7-3.4,2.5c1.1-1.1,2.4-2.3,3.8-3.6c9.6-8.5,21.7-18.7,20.9-19.7
		c-0.7-0.9-13,9.1-23.2,16.9l-0.5,0.4c9.2-8.4,20.7-18.3,20-19.2c-0.7-0.9-11.9,8.5-21.5,16.1c1.1-1.2,2.4-2.5,3.9-3.8
		c9-8.5,20.4-18.6,19.6-19.5c-0.8-0.9-12.2,9-21.8,16.7c0.2-0.2,0.4-0.4,0.7-0.6c10.3-10,23.4-21.9,22.5-22.9
		c-0.9-1-14.2,10.7-25.2,19.9c-2.8,2.4-5.3,4.2-7.5,5.7c6.9-6.8,13.2-13,12.6-13.6c-0.6-0.6-6.9,4.9-14,11.1c0.9-1,1.8-1.9,2.8-3
		c10-10.2,22.7-22.5,21.8-23.5c-1-1-13.8,11.1-24.5,20.6c-2.9,2.6-5.4,4.5-7.6,6.2l0.2-0.2c9.5-10.1,21.6-22.2,20.7-23.1
		c-0.9-0.9-13.2,11-23.4,20.5c-1,0.9-2,1.8-2.9,2.6c1.3-1.6,2.8-3.4,4.6-5.4c9.3-10.1,21-22.4,20.1-23.3
		c-0.9-0.9-12.5,10.8-22.4,20.3c0.2-0.3,0.5-0.5,0.7-0.8c8.9-10,20.1-22.1,19.2-22.9c-0.9-0.8-12.4,11-21.9,20.4
		c-2.3,2.3-4.4,4.1-6.3,5.7c0.6-0.7,1.2-1.4,1.8-2.1c8.6-10,19.5-22.2,18.6-23c-0.8-0.7-10.2,9.2-18.8,18.1c1-1.3,2.1-2.7,3.3-4.2
		c8.8-10.6,19.9-23.4,18.9-24.3c-1-0.9-12.3,11.7-21.8,21.7c-1.7,1.8-3.2,3.3-4.6,4.6c1.2-1.8,2.6-3.7,4.3-5.9
		c8.1-10.2,18.4-22.6,17.5-23.4c-1-0.8-11.5,11.4-20.3,21c-1.2,1.3-2.3,2.4-3.3,3.5c1.2-1.9,2.7-4,4.5-6.3c8.4-11,19-24.3,18-25.1
		c-1-0.8-11.9,12.3-21,22.7c-1.8,2-3.4,3.8-4.9,5.3c1.1-1.8,2.4-3.7,3.9-5.8c7.8-10.7,17.8-23.7,16.8-24.5c-1-0.8-11.2,12-19.8,22.2
		c-1,1.2-1.9,2.2-2.8,3.2c1-1.6,2.2-3.4,3.5-5.4c8-11.4,28.4-38.6,27.2-39.5c-1.2-0.9-21.7,26.3-30.4,37.1c-2.3,2.9-4.4,5.2-6.3,7.1
		c0.5-0.7,0.9-1.4,1.4-2.2c7.3-10.9,16.6-24.1,15.6-24.8s-10.6,12.3-18.6,22.7c-0.9,1.2-1.8,2.3-2.7,3.3
		c7.1-10.9,14.8-22.4,13.9-23.1c-1-0.7-10.5,12.6-18.7,23.8c1.3-2.6,2.8-5.4,4.9-8.8c7.3-11.9,16.7-26.4,15.6-27.2
		c-1.2-0.7-10.8,13.6-18.9,25c-1.4,2-2.8,3.7-4,5.3c6.9-11.6,14.5-24.1,13.5-24.7c-0.9-0.6-6.9,8.4-13.3,18c0.4-0.7,0.8-1.4,1.2-2.1
		c6.8-12,15.5-26.7,14.4-27.4c-1.2-0.7-10.1,13.8-17.7,25.3c-1.2,1.8-2.3,3.4-3.3,4.8c0.7-1.6,1.6-3.3,2.6-5.2
		c6.5-12.2,14.9-27,13.7-27.7c-1-0.5-6.9,9.1-13,19c6.3-12.2,13.7-25.9,12.5-26.6c-1.2-0.7-9.3,13.5-16.5,25.5
		c5.7-11.7,12.5-24.8,11.3-25.4c-1.2-0.7-9.2,14-15.9,25.8c-1.7,2.9-3.2,5.2-4.6,7.3c5.6-12.2,12.8-26.7,11.6-27.3
		c-1.2-0.6-8.8,14.3-15.3,26.1c-0.3,0.6-0.7,1.2-1,1.8c0.5-1.4,1.2-3,1.9-4.6c5.6-12.8,12.8-28.4,11.6-29
		c-1.3-0.6-8.8,14.9-15.2,27.3c-0.4,0.8-0.8,1.6-1.2,2.3c4.6-10.9,9.5-22.3,8.5-22.7c-1.1-0.5-7.9,14-13.6,25.7
		c-1.2,2.5-2.3,4.5-3.4,6.4c0.5-1.6,1.1-3.3,1.9-5.2c4.5-11.6,10.4-25.7,9.3-26.2s-7.2,13.6-12.4,24.9c-0.6,1.4-1.3,2.7-1.9,3.8
		c0.2-0.6,0.4-1.2,0.6-1.8c4.6-12.5,10.6-27.9,9.4-28.4c-1-0.4-5.4,10.1-10,20.6c0.5-1.8,1.1-3.8,1.8-5.9
		c4.5-13.4,10.5-29.7,9.2-30.2c-1.3-0.5-7.6,15.7-12.9,28.7c-1,2.3-1.9,4.4-2.8,6.2c3.3-10.2,6.4-19.9,5.5-20.2
		c-0.9-0.3-4.4,8.8-8.1,18.7c0.6-3.4,1.3-7.3,2.7-12.4c3.7-13,8.6-28.8,7.3-29.3c-1.3-0.4-6.6,15.3-11.1,28
		c-1.9,5.1-3.6,8.8-5.2,11.9c3-11.4,6.5-24,5.4-24.4c-1.1-0.4-5.5,14.3-9.4,26.1c-0.2,0.7-0.5,1.4-0.7,2c0.3-2.4,0.8-5,1.5-8.1
		c2.9-12.5,6.8-27.8,5.6-28.1c-1.2-0.3-5.4,14.9-9.1,27.2c-0.7,2.4-1.4,4.5-2.1,6.3c0.3-2.3,0.7-4.9,1.3-7.9
		c2.7-13.1,6.3-29.1,5-29.4c-1.3-0.3-5.2,15.6-8.7,28.5c-1.1,4-2.2,7.2-3.2,9.9c0.1-0.7,0.2-1.5,0.4-2.3c2.3-12.7,5.4-28.4,4.2-28.6
		c-1.2-0.2-4.6,15.4-7.6,27.9c-0.4,1.6-0.8,3-1.1,4.3c0.2-2.7,0.4-5.8,1-9.5c1.9-13.1,4.7-29.2,3.4-29.5c-1.3-0.2-4.2,15.2-6.9,28
		c0.1-2.1,0.3-4.5,0.6-7.2c1.5-12.2,6.8-46.3,5.4-46.5c-1.4-0.2-6.7,33.8-9,45.9c-0.7,3.5-1.4,6.3-2.1,8.8
		c1.2-11.8,2.6-24.1,1.5-24.2c-1.3-0.1-3.5,15.8-5.6,28.7c-0.3,2-0.7,3.8-1,5.4c0-1.2,0.1-2.4,0.2-3.7c0.9-12.4,2.5-27.8,1.3-27.9
		c-1.1-0.1-2.8,13.8-4.4,25.8c-0.1-2.8-0.2-6,0-10c0.6-12.8,1.8-28.6,0.5-28.8c-1.3-0.1-2.7,15.6-4.2,28.4c-0.4,3.4-0.9,6.1-1.3,8.6
		c-0.1-1.7-0.1-3.5,0-5.5c0.3-12.7,1-28.4-0.3-28.4c-1.3,0-2.2,15.6-3.3,28.3c-0.3,3.1-0.6,5.7-1,8c0-1.2-0.1-2.4-0.1-3.8
		c0-12.7,0.3-28.5-1-28.5c-1.2,0-1.8,15.7-2.5,28.4c-0.2,2.6-0.4,4.8-0.6,6.8c-0.2-2.2-0.4-4.8-0.5-7.8c-0.4-12.7-0.5-28.5-1.8-28.5
		l0,34c0,0.2,0,0.1,0,0c0,0.3,0,0.6,0,0.8L305.9,123.6z"></path>
	<path d="M305.9,78.2c0,0.2,0,0.3,0,0.4C305.9,78.1,305.9,77.8,305.9,78.2z"></path>
	<path d="M305.9,79.9c0-0.4,0-0.9,0-1.3C305.9,79.1,305.9,79.7,305.9,79.9z"></path>
	<path d="M480.6,193.4c0.4-0.3,0.8-0.5,1.2-0.8C481.4,192.9,480.7,193.3,480.6,193.4z"></path>
	<path d="M489,201.1c1.4-0.9,2.9-1.9,4.6-3c10.8-6.7,24.4-14.6,23.9-15.6c-0.6-1-14.3,6.6-25.6,12.5c-2.7,1.4-5.1,2.5-7.2,3.4
		c1-0.7,2-1.4,3.1-2.1c10.8-6.8,24.3-14.9,23.7-15.9c-0.6-1-14.2,6.9-25.4,12.9c-2.3,1.2-4.3,2.2-6.1,3c1.8-1.4,3.8-2.9,6.3-4.5
		c10.7-7,24-15.2,23.5-16.2l-29.1,17.6c-0.1,0.1-0.1,0.1-0.1,0c-0.2,0.1-0.5,0.3-0.7,0.4L443.2,216c0.5,0.7,15.6-8.2,26.8-14.3
		c2.3-1.2,4.3-2.2,6.1-3.1c-1.8,1.4-3.8,2.8-6.3,4.4c-10.7,6.9-25.8,15.9-25.3,16.7c0.4,0.8,15.7-8,27-13.9c2.7-1.5,5.1-2.6,7.2-3.5
		c-1,0.7-2,1.3-3.1,2c-10.8,6.8-26,15.6-25.5,16.4c0.4,0.8,15.8-7.7,27.1-13.5c2.9-1.5,5.4-2.6,7.7-3.5c-1.4,1-3,2-4.8,3.1
		c-11,6.7-26.4,15.4-26,16.2c0.4,0.8,15.6-7.3,27-13c-2.2,1.6-4.7,3.3-8,5.3c-10.7,6.3-25.8,14.6-25.4,15.4
		c0.4,0.7,15.7-7.2,26.9-12.6c1.4-0.7,2.7-1.3,4-1.8c-1.3,0.8-2.6,1.6-4.2,2.5c-11.3,6.5-27.2,15-26.8,15.8
		c0.4,0.8,16.5-7.3,28.3-12.8c3.5-1.6,6.5-2.8,9.1-3.7c-9.5,5.2-19.4,10.5-19,11.1c0.4,0.7,12.7-5.3,23.4-10.1
		c-2,1.3-4.3,2.7-7.1,4.3c-11.6,6.3-28,14.6-27.6,15.4c0.4,0.8,17-7.1,29.1-12.4c1.8-0.8,3.4-1.4,4.9-2c-2.1,1.4-4.6,2.9-7.7,4.5
		c-5.7,3-17.3,8.7-27.3,13.8c-5,2.5-9.7,4.9-13.1,6.6c-3.4,1.8-5.5,3-5.4,3.1c0.1,0.2,2.3-0.7,5.8-2.2c3.5-1.5,8.3-3.6,13.4-5.9
		c10.3-4.6,22-9.9,27.9-12.4c3.6-1.5,6.6-2.6,9.2-3.4c-0.9,0.5-1.9,1-3,1.6c-11.9,6.1-28.5,13.9-28.1,14.8
		c0.4,0.8,17.2-6.6,29.5-11.7c2.7-1.1,5.1-2,7.3-2.6c-1.8,1-3.8,2.1-6.1,3.3c-11.5,5.7-27.5,13-27.2,13.8
		c0.4,0.8,16.6-6.2,28.5-10.8c1.1-0.4,2.1-0.8,3-1.1c-1.9,1.1-4.1,2.3-6.7,3.6c-11.1,5.4-26.8,12.3-26.5,13.1
		c0.3,0.8,16.1-5.8,27.7-10.2c4.6-1.8,8.2-2.8,11.3-3.5l-0.4,0.2c-12.2,5.7-29.3,13-28.9,13.9c0.3,0.7,11.9-3.7,23-7.9
		c-2.8,1.7-6.2,3.6-10.9,5.7c-11.9,5.4-28.6,12.3-28.3,13.1c0.3,0.8,17.2-5.7,29.5-10.1c2-0.7,3.7-1.3,5.4-1.7
		c-12.1,5.2-26,10.9-25.7,11.7c0.3,0.8,14.8-4.5,27.4-8.9c-1.5,0.7-3.1,1.4-4.9,2.2c-12.3,5.2-29.5,11.9-29.2,12.8
		c0.3,0.9,17.6-5.5,30.3-9.6c2-0.6,3.7-1.2,5.4-1.6c-11.4,4.7-27.1,10.7-26.8,11.5c0.3,0.8,16.5-4.9,28.3-8.7
		c2.2-0.7,4.1-1.2,5.8-1.7c-1.8,0.9-3.8,1.8-6.2,2.7c-12.1,4.8-29,11-28.6,11.9c0.3,0.8,17.3-4.9,29.8-8.7c0.4-0.1,0.7-0.2,1.1-0.3
		c-12.7,4.9-28.7,10.6-28.4,11.5c0.3,0.9,18.6-5.1,31.9-9c1-0.3,2-0.5,2.9-0.8c-1.2,0.5-2.5,1-3.9,1.6c-12.6,4.8-30.3,10.8-30,11.7
		c0.3,0.9,18.1-4.8,31.1-8.4c3.2-0.9,5.9-1.5,8.3-2c-12.7,4.7-30.2,10.5-29.9,11.4c0.3,0.9,15.9-3.9,28.6-7.4
		c-13.2,4.7-30.8,10.4-30.5,11.3c0.3,0.8,13.5-3,25.9-6.4c-12.7,4.3-28.2,9.2-27.9,10.1c0.3,0.9,18.6-4.3,32-7.7
		c2.1-0.5,4-0.9,5.7-1.3c-1.6,0.6-3.4,1.3-5.4,2c-13.1,4.4-31.3,9.9-31.1,10.8c0.2,0.7,10.4-1.9,21.1-4.6c-0.9,0.3-1.8,0.6-2.8,1
		c-13.6,4.4-32.7,9.9-32.4,10.9c0.3,0.9,19.4-4.2,33.4-7.4c2.5-0.6,4.8-1,6.8-1.4c-12.6,3.9-27.3,8.1-27.1,8.9
		c0.3,0.9,17.3-3.4,30.7-6.4c-2.7,1.1-5.8,2.2-9.7,3.4c-13.6,4.1-32.5,9.1-32.3,10.1c0.2,0.9,19.3-3.7,33.1-6.6c2-0.4,3.7-0.7,5.4-1
		c-11,3.1-22.4,6.2-22.2,6.9c0.2,0.9,17.8-3.2,30.7-5.8c3.1-0.6,5.7-1,8-1.3c-1.4,0.5-2.9,0.9-4.5,1.4c-13.4,3.8-32.1,8.4-31.9,9.3
		c0.2,1,19-3.2,32.7-5.8c2-0.4,3.9-0.7,5.6-0.9c-1.5,0.5-3.1,1-4.9,1.5c-12.8,3.5-30.7,7.6-30.5,8.6c0.2,0.9,18.2-2.9,31.2-5.2
		c2.2-0.4,4.2-0.7,6.1-0.9c-2.2,0.8-4.8,1.5-7.7,2.3c-13.4,3.4-32,7.6-31.8,8.6c0.2,1,18.9-2.8,32.5-5c2.4-0.4,4.5-0.7,6.4-0.9
		c-1.8,0.6-3.8,1.1-6,1.7c-12.7,3.1-30.3,6.8-30.1,7.8c0.2,0.9,17.9-2.4,30.8-4.4c1.8-0.3,3.4-0.5,4.9-0.7c-2.4,0.8-5.1,1.5-8.3,2.3
		c-13.4,3.1-32,6.9-31.8,7.8c0.2,0.9,17.2-2.1,30.6-4.1c-1.4,0.4-2.9,0.8-4.6,1.1c-6.4,1.4-19,3.9-30,6.1
		c-10.9,2.2-20.3,4.2-20.2,4.6c0.1,0.4,9.5-1,20.5-2.7c11-1.7,23.7-3.8,30.2-4.7c3.1-0.4,5.8-0.7,8.2-0.8c-1,0.2-2,0.5-3,0.7
		c-13.1,2.8-31.2,6.1-31,7c0.1,0.9,17.1-1.8,30.2-3.4c-0.5,0.1-1.1,0.2-1.7,0.4c-13.5,2.8-32.1,6-32,6.9c0.2,0.9,18.9-1.9,32.6-3.5
		c1.2-0.1,2.4-0.2,3.5-0.4c-2.1,0.6-4.4,1.1-7.1,1.6c-13.6,2.6-32.5,5.7-32.4,6.6c0.2,0.9,19.1-1.7,33-3.2c3.6-0.4,6.6-0.6,9.3-0.6
		c-0.5,0.1-0.9,0.2-1.4,0.3c-14.1,2.6-33.6,5.5-33.5,6.5c0.1,0.9,14.7-0.9,27.9-2.3c-0.6,0.1-1.2,0.2-1.9,0.3
		c-12.5,2.2-29.8,4.6-29.7,5.5c0.1,0.9,17.5-1.2,30.1-2.3c3-0.3,5.5-0.4,7.7-0.4c-13.4,2.1-29.1,4.3-29,5.2c0.1,1,19.8-1.2,34.1-2.3
		c1.1-0.1,2.2-0.1,3.2-0.2c-11.6,1.8-25.4,3.6-25.2,4.4c0.1,0.9,16-0.7,28.2-1.6c-1.6,0.3-3.4,0.7-5.5,1
		c-12.3,1.8-29.4,3.8-29.3,4.7c0.1,0.9,17-0.7,29.4-1.5c-0.2,0-0.4,0.1-0.6,0.1c-12.7,1.8-30.3,3.7-30.2,4.6s17.7-0.6,30.5-1.3
		c0.7,0,1.3-0.1,1.9-0.1c-2,0.4-4.3,0.8-6.8,1.1c-13.7,1.8-32.7,3.7-32.6,4.7c0.1,1,19.1-0.5,32.9-1.1c3.7-0.2,6.7-0.1,9.4,0
		c-12.3,1.5-28.4,3-28.3,3.8c0.1,0.8,13.5,0,25.2-0.5c-3.2,0.7-7,1.5-12,2c-13.9,1.5-33.2,3.1-33.1,4c0,1,19.3-0.1,33.3-0.5
		c2.1-0.1,4-0.1,5.7,0c-14,1.4-32.6,2.7-32.5,3.7c0,0.9,17.2,0.2,31-0.1c-0.9,0.1-1.8,0.2-2.8,0.3c-13.3,1.2-31.7,2.4-31.6,3.3
		c0.1,0.9,18.5,0.2,31.8,0.1c3,0,5.5,0.1,7.8,0.2c-12.8,1-28.6,1.9-28.6,2.8c0,0.9,15.6,0.5,28.4,0.4c-0.9,0.1-1.9,0.2-2.9,0.3
		c-12.9,1-30.7,1.8-30.7,2.7c0,0.9,17,0.5,29.8,0.6c-0.9,0.1-1.9,0.2-3,0.2c-12.5,0.9-29.8,1.5-29.8,2.4c0,0.9,17.3,0.6,29.9,0.8
		c1.5,0,2.9,0.1,4.2,0.1c-12,0.6-23.9,1.2-23.9,2c0,0.9,14,0.9,26.9,1.1c-2.8,0.4-6,0.8-10,1c-12.7,0.7-30.2,1-30.2,1.9
		c0,0.9,17.6,0.9,30.2,1.3c4.4,0.1,7.8,0.5,10.8,0.9c-0.7,0-1.5,0.1-2.2,0.1c-12.7,0.5-30.3,0.7-30.3,1.6l45.2,0c-0.4,0,1.2,0,2,0
		c-0.5,0-1,0-1.5,0l32,0c0-1.1-15.7-1.2-28.5-1.7c-4.4-0.2-7.9-0.5-10.8-1c0.7,0,1.4-0.1,2.1-0.1c12.7-0.6,28.3-0.9,28.3-2
		c0-0.7-7.5-1-16.4-1.1c3.2-0.5,6.9-1,11.5-1.3c14.3-0.8,31.9-1.3,31.8-2.6c0-1.3-17.6-1.1-31.9-1.4c-2.3,0-4.4-0.1-6.3-0.3
		c7.3-0.4,13-0.9,13-1.5c0-1-13.8-0.8-25.9-0.9c1.1-0.1,2.3-0.2,3.6-0.3c12.9-0.9,28.9-1.6,28.9-2.7c0-1-13-0.8-25-0.7
		c1-0.1,2.1-0.2,3.3-0.3c13.2-1.1,29.6-1.9,29.5-3.1c-0.1-1.2-16.4-0.6-29.7-0.5c-3,0-5.5-0.1-7.7-0.2c12.7-1.1,27.1-2,27-3.1
		c-0.1-1-13-0.6-25.2-0.3c1.2-0.2,2.5-0.3,3.8-0.4c14-1.4,31.4-2.6,31.3-3.8c-0.1-1.2-17.4-0.4-31.5,0c-2.2,0-4.1,0-5.9,0
		c13.7-1.4,29.9-2.7,29.9-3.9c-0.1-1.2-17.2-0.2-31.2,0.3c2.8-0.7,6.2-1.3,10.5-1.8c12.4-1.4,27.8-2.8,27.7-3.9
		c-0.1-1.1-15.5,0-28,0.5c-3,0.1-5.5,0.1-7.7,0c0.8-0.1,1.6-0.2,2.5-0.3c13.7-1.7,30.7-3.4,30.6-4.6c-0.1-1.2-17.1,0.1-30.9,0.9
		c-1.5,0.1-2.9,0.1-4.2,0.1c1.6-0.3,3.3-0.6,5.1-0.8c12.7-1.7,28.4-3.4,28.3-4.5c-0.1-1.1-15.9,0.3-28.7,1.1c-0.2,0-0.4,0-0.6,0
		c12.3-1.8,27.4-3.5,27.3-4.6c-0.1-1-14.6,0.3-26.8,1.2c1.6-0.3,3.4-0.7,5.4-1c12.2-1.9,27.3-3.7,27.2-4.8
		c-0.1-1.1-15.1,0.5-27.4,1.4c0.3,0,0.6-0.1,0.9-0.2c14.2-2.3,31.7-4.6,31.6-5.8c-0.2-1.3-17.8,0.7-32.1,1.9
		c-3.6,0.3-6.7,0.4-9.4,0.4c9.6-1.5,18.2-3,18.1-3.8c-0.1-0.8-8.4,0-17.9,1c1.3-0.3,2.6-0.5,4-0.8c14.1-2.5,31.5-5.1,31.4-6.3
		c-0.2-1.2-17.7,1-31.9,2.5c-3.8,0.4-7,0.5-9.8,0.6l0.3-0.1c13.6-2.6,30.5-5.3,30.4-6.4c-0.2-1.2-17.2,1.2-31,2.8
		c-1.4,0.2-2.6,0.3-3.8,0.4c2-0.5,4.3-1.1,6.9-1.6c13.5-2.7,30.2-5.5,30-6.7c-0.2-1.2-16.5,1.3-30.1,3c0.3-0.1,0.7-0.1,1-0.2
		c13.1-2.7,29.3-5.6,29.1-6.8c-0.2-1.1-16.5,1.5-29.7,3.2c-3.2,0.4-6,0.7-8.4,0.8c0.9-0.2,1.8-0.4,2.7-0.6c12.9-2.8,28.9-5.8,28.8-7
		c-0.2-1-13.6,1.2-26,3c1.6-0.4,3.3-0.9,5.2-1.3c13.4-3,30-6.4,29.8-7.5c-0.2-1.2-16.9,1.8-30.5,3.9c-2.4,0.4-4.5,0.6-6.5,0.8
		c2-0.6,4.3-1.3,7-1.9c12.7-3,28.4-6.3,28.2-7.5c-0.2-1.1-16,1.9-28.9,4c-1.7,0.3-3.3,0.5-4.8,0.7c2.2-0.7,4.6-1.4,7.4-2.1
		c13.4-3.4,30-7,29.8-8.2c-0.2-1.2-17,2.2-30.5,4.5c-2.7,0.5-5,0.8-7.1,1c2-0.7,4.2-1.3,6.7-2c12.9-3.4,28.9-7.1,28.6-8.2
		c-0.3-1.1-16.3,2.3-29.4,4.7c-1.5,0.3-2.9,0.5-4.2,0.7c1.8-0.6,3.8-1.2,6.1-1.9c13.4-3.7,46.5-11.5,46.2-12.8
		c-0.3-1.3-33.4,6.4-47.1,9.1c-3.6,0.7-6.7,1.1-9.4,1.4c0.8-0.2,1.7-0.5,2.5-0.8c12.6-3.6,28.3-7.6,28-8.7c-0.3-1.1-16,2.6-28.8,5.3
		c-1.5,0.3-2.9,0.6-4.2,0.8c12.5-3.6,25.9-7.3,25.6-8.3c-0.3-1.1-16.1,2.7-29.7,5.7c2.6-1.1,5.7-2.2,9.5-3.4
		c13.4-4.1,30.1-8.7,29.7-9.9c-0.3-1.2-17.1,3.1-30.8,6.2c-2.4,0.6-4.5,1-6.5,1.3c12.8-4,26.9-8.2,26.6-9.2
		c-0.3-0.9-10.7,1.7-21.9,4.4c0.7-0.2,1.5-0.5,2.3-0.8c13.1-4.3,29.4-9.2,29.1-10.3c-0.3-1.2-16.7,3.4-30.1,6.7
		c-2.1,0.5-4,0.9-5.7,1.3c1.6-0.6,3.4-1.3,5.4-2c13.1-4.4,29.4-9.5,29-10.7c-0.3-1-11.2,2-22.4,5c12.9-4.5,27.8-9.3,27.4-10.4
		c-0.4-1.2-16.1,3.5-29.5,7.1c12.3-4.4,26.2-9,25.9-10.1c-0.4-1.2-16.4,3.8-29.4,7.4c-3.2,0.9-6,1.5-8.4,2c12.6-4.7,28-9.9,27.6-11
		c-0.4-1.1-16.2,4-29.2,7.7c-0.7,0.2-1.3,0.4-1.9,0.5c1.4-0.6,2.9-1.2,4.6-1.9c13-5,29.2-10.7,28.9-11.9c-0.4-1.2-16.7,4.3-30.1,8.3
		c-0.9,0.2-1.7,0.5-2.5,0.7c11-4.3,22.6-8.6,22.2-9.5c-0.4-1.1-15.6,4.1-28,8c-2.6,0.8-4.9,1.4-7,1.9c1.5-0.7,3.2-1.4,5.1-2.2
		c11.5-4.7,25.9-10.1,25.5-11.1s-14.8,4.1-26.6,8c-1.5,0.5-2.8,0.9-4.1,1.2c0.6-0.2,1.2-0.5,1.8-0.8c12.3-5.1,27.7-11.1,27.3-12.2
		c-0.3-0.9-11.1,2.9-21.9,6.6c1.7-0.8,3.5-1.7,5.6-2.6c12.9-5.6,29.1-12,28.7-13.2c-0.5-1.2-16.8,5-30.1,9.6c-2.4,0.8-4.5,1.5-6.5,2
		c9.8-4.3,19.2-8.3,18.8-9.1c-0.3-0.8-9.5,2.6-19.4,6.2c2.9-1.8,6.4-3.8,11.2-6c12.2-5.6,27.5-12.1,27.1-13.3
		c-0.5-1.1-15.9,5.1-28.5,9.8c-5.1,1.9-9,2.9-12.5,3.8c10.7-5,22.6-10.3,22.3-11.3c-0.4-1-14.5,4.9-26.1,9.4c-0.7,0.3-1.4,0.5-2,0.8
		c2-1.2,4.4-2.5,7.3-3.9c11.5-5.6,25.9-12.1,25.4-13.2c-0.5-1-15,5.2-26.9,10c-2.3,0.9-4.4,1.7-6.2,2.3c2-1.2,4.3-2.5,7-3.9
		c11.9-6,26.8-13,26.3-14.1c-0.5-1.1-15.5,5.6-27.8,10.7c-3.9,1.6-7,2.7-9.8,3.5c0.7-0.3,1.3-0.7,2-1.1
		c11.5-5.9,25.8-12.9,25.3-13.9c-0.5-1-14.9,5.7-26.8,10.8c-1.5,0.6-2.8,1.2-4.1,1.7c2.2-1.5,4.9-3.1,8.2-4.9
		c11.7-6.3,26.3-13.6,25.8-14.6c-0.5-1-14.7,5.7-26.7,11.1c1.8-1.2,3.8-2.4,6.2-3.7c10.7-5.9,41.5-21.5,41-22.6
		c-0.5-1-31.3,14.4-42.5,19.5c-3.3,1.5-6,2.6-8.4,3.4c10.4-5.8,21.3-11.7,20.8-12.6c-0.5-1-14.9,6.3-26.6,11.9
		c-1.8,0.9-3.5,1.6-5,2.2c1-0.6,2-1.3,3.2-1.9c10.8-6.3,24.3-13.6,23.8-14.6c-0.5-0.9-13,5.6-23.9,10.9c2.2-1.7,4.9-3.5,8.3-5.6
		c11-6.6,24.8-14.4,24.3-15.4c-0.6-1-14.5,6.5-26,12.3C493.9,199.1,491.3,200.2,489,201.1z"></path>
	<path d="M482.1,192.5c-0.1,0.1-0.2,0.1-0.3,0.2C482.1,192.4,482.3,192.3,482.1,192.5z"></path>
</g>
  </symbol>
  <use xlink:href="#uniflash-symbol" width="100" height="100"></use>
</svg>